<?xml version="1.0" encoding="iso-8859-1"?>
<!-- Generator: Adobe Illustrator 19.0.0, SVG Export Plug-In . SVG Version: 6.00 Build 0)  -->
<svg version="1.1" id="Layer_1" xmlns="http://www.w3.org/2000/svg" xmlns:xlink="http://www.w3.org/1999/xlink" x="0px" y="0px"
	 width="160px" height="40px" viewBox="0 0 160 40" style="enable-background:new 0 0 160 40;" xml:space="preserve">
<style type="text/css">
	.st0{fill:none;stroke:#F3F3F3;stroke-width:0.6;stroke-miterlimit:10;}
	.st1{fill:#F3F3F3;}
	.st2{fill:none;stroke:#F3F3F3;stroke-miterlimit:10;}
	.st3{fill:#F3F3F3;stroke:#F3F3F3;stroke-width:0.5;stroke-miterlimit:10;}
</style>
<g>
	<g>
		<g>
			<path id="XMLID_85_" class="st0" d="M36.211,14.991c-0.489-1.308-0.048-3.47-1.269-5.276c-1.35-1.734-3.556-1.978-4.627-2.828
				c-1.126-0.746-2.042-2.784-4.126-3.534c-0.42-0.14-0.85-0.184-1.26-0.184c-1.575,0.02-3.023,0.637-4.147,0.62
				c-1.132,0.017-2.575-0.6-4.149-0.624c-0.413,0-0.843,0.056-1.265,0.193c-2.079,0.745-2.994,2.783-4.122,3.52
				c-1.068,0.859-3.272,1.103-4.622,2.837c-1.225,1.806-0.78,3.965-1.274,5.276c-0.343,1.271-2.002,2.776-2.071,5.017
				c0.069,2.231,1.728,3.742,2.071,5.01c0.494,1.307,0.05,3.472,1.274,5.273c1.35,1.734,3.553,1.981,4.622,2.834
				c1.128,0.741,2.043,2.78,4.126,3.527c0.423,0.13,0.843,0.184,1.262,0.184c1.574-0.024,3.017-0.634,4.149-0.616
				c1.124-0.018,2.571,0.592,4.147,0.616c0.405,0,0.834-0.046,1.26-0.184c2.084-0.747,3-2.786,4.126-3.527
				c1.069-0.853,3.277-1.1,4.624-2.834c1.225-1.801,0.784-3.966,1.273-5.273c0.347-1.268,2.004-2.779,2.069-5.01
				C38.215,17.767,36.558,16.262,36.211,14.991z"/>
		</g>
		<g>
			<path class="st1" d="M26.449,19.227c-0.304-0.052-0.522-0.132-0.522-0.413c1.654-0.771,2.811-1.79,2.811-3.772
				c0-1.766-0.91-2.865-2.094-3.446c-1.242-0.635-2.895-0.773-4.63-0.773c-2.459,0-4.281,0.075-5.74,0.205
				c-2.612,0.031-4.124,1.597-4.127,3.543c0.003,1.691,1.194,2.858,2.21,3.531l1.917,1.251c1.448,0.936,1.611,1.875,1.616,2.755
				c-0.006,1.173-0.783,2.233-2.441,2.235c-2.285,0.003-3.089-1.929-3.392-2.941c-0.065-0.104-0.164-0.131-0.255-0.131
				c-0.135,0.001-0.282,0.052-0.363,0.162l-0.018,0.024v0.022c0.043,0.969,0.298,2.389,0.553,2.862
				c0.422,0.254,1.502,0.786,3.214,0.786c1.282,0,2.348-0.37,3.105-1.003v0.834c0,2.894-0.056,3.228-1.516,3.449L16.28,28.49
				c-0.165,0.163-0.11,0.605,0.057,0.686c1.017-0.027,1.955-0.081,3.167-0.081c1.158,0,2.509,0.081,3.309,0.081
				c4.96,0,7.33-2.144,7.33-5.345C30.144,20.881,27.937,19.506,26.449,19.227z M20.551,12.559c0-0.49,0.112-0.635,0.388-0.715
				c0.246-0.11,0.66-0.166,1.265-0.166c2.097,0,4.108,1.018,4.108,3.721c0,2.588-1.517,3.415-4.33,3.53
				c-1.404,0.052-1.432,0-1.432-0.776V12.559z M16.999,17.385l-1.613-1.005c-0.737-0.478-1.677-1.294-1.673-2.411
				c0.008-0.911,0.39-2.155,2.319-2.161c1.155,0,1.79,0.472,2.173,1.055c0.072,0.389,0.087,0.914,0.087,1.631v3.901
				C17.897,17.992,17.452,17.665,16.999,17.385z M23.305,28.325c-0.822,0-1.652-0.139-2.175-0.773
				c-0.524-0.609-0.58-2.015-0.58-3.006v-4.075c0-0.555,0.112-0.718,1.597-0.718c4.383,0,5.488,2.535,5.488,4.708
				C27.636,27.215,25.762,28.325,23.305,28.325z"/>
		</g>
		<path id="XMLID_80_" class="st2" d="M6.937,20.008c0,7.64,6.199,13.843,13.845,13.843c7.643,0,13.844-6.202,13.844-13.843
			c0-7.652-6.2-13.85-13.844-13.85C13.136,6.158,6.937,12.356,6.937,20.008z"/>
	</g>
</g>
<g id="XMLID_190_">
	<path id="XMLID_191_" class="st3" d="M48.687,27.157c0.007-0.107,0.035-0.204,0.086-0.29c0.559-0.15,1.103-0.251,1.633-0.301
		c0.351-0.028,0.576-0.107,0.677-0.236c0.071-0.093,0.114-0.438,0.129-1.032l0.075-2.838l-0.011-1.925l0.011-2.516v-0.667
		c0.007-1.512,0-2.455-0.021-2.828c-0.008-0.071-0.036-0.172-0.087-0.301c-0.187-0.086-0.344-0.144-0.47-0.172
		c-0.126-0.029-0.688-0.133-1.688-0.312c-0.008-0.079-0.011-0.136-0.011-0.172c0-0.043,0.003-0.1,0.011-0.172
		c0.136,0,0.358,0.008,0.667,0.024l1.636,0.062l0.946,0.021l0.28-0.011c0.035,0,0.14,0.007,0.312,0.021
		c0.424,0,0.667-0.003,0.731-0.011l0.861-0.064c0.581,0,0.989,0.011,1.227,0.032c-0.008,0.129-0.032,0.269-0.075,0.419
		c-0.079,0.015-0.451,0.034-1.117,0.059c-0.666,0.025-1.05,0.066-1.149,0.124c-0.165,0.093-0.247,0.38-0.247,0.859
		c0,0.115-0.008,0.348-0.021,0.698v0.645l0.011,1.987v0.677l0.021,3.556l-0.032,3.029l0.011,0.666c0,0.215,0.035,0.348,0.107,0.397
		c0.179,0.008,0.705,0.015,1.579,0.021h0.73l1.858-0.064c0.486-0.014,0.834-0.063,1.042-0.145c0.207-0.082,0.555-0.324,1.042-0.726
		c0.293-0.258,0.522-0.522,0.688-0.795c0.035-0.057,0.097-0.143,0.183-0.258c0.136-0.186,0.318-0.559,0.548-1.117h0.354
		c-0.043,0.258-0.09,0.502-0.14,0.73c-0.208,1.01-0.352,1.852-0.43,2.524c-0.015,0.144-0.029,0.276-0.043,0.397l-4.018-0.118
		c-3.452,0-5.5,0.032-6.145,0.097c-0.201,0.015-0.412,0.021-0.634,0.021H48.687z"/>
	<path id="XMLID_193_" class="st3" d="M64.116,26.749c0.157-0.064,0.318-0.104,0.483-0.118c1.096-0.071,1.723-0.202,1.88-0.393
		c0.157-0.189,0.236-1.108,0.236-2.758l-0.011-1.128v-1.183l-0.043-1.301l0.021-0.764l-0.011-0.838v-0.989l-0.021-0.44l0.021-0.56
		c0.007-0.129,0.011-0.279,0.011-0.451c0-0.452-0.021-0.928-0.064-1.43c-0.028-0.1-0.068-0.197-0.118-0.29
		c-0.265-0.136-0.692-0.228-1.283-0.274c-0.591-0.046-0.926-0.098-1.005-0.156c-0.058-0.043-0.09-0.154-0.097-0.333h0.904
		l2.851,0.064c0.731,0,1.707-0.021,2.927-0.064c0,0.115-0.007,0.222-0.021,0.322c-0.144,0.036-0.383,0.075-0.72,0.118
		c-0.681,0.079-1.096,0.154-1.246,0.226c-0.093,0.036-0.161,0.097-0.204,0.183c-0.071,0.129-0.114,0.369-0.129,0.72l-0.054,1.387
		l0.043,4.785v1.892c-0.015,0.595-0.021,1-0.021,1.215c0,0.803,0.02,1.315,0.06,1.538c0.039,0.222,0.107,0.381,0.204,0.478
		c0.097,0.098,0.256,0.174,0.478,0.231c0.329,0.079,0.587,0.122,0.773,0.129c0.401,0.015,0.655,0.072,0.763,0.172
		c0.021,0.094,0.032,0.172,0.032,0.236v0.086c-0.652,0.021-1.133,0.032-1.441,0.032c-0.18,0-0.499-0.011-0.958-0.032l-1.484,0.021
		l-2.528-0.011h-0.205L64.116,26.749z"/>
	<path id="XMLID_195_" class="st3" d="M74.219,13.794v-0.333c0.122-0.028,0.219-0.046,0.29-0.054l1.01-0.056
		c0.838-0.075,1.776-0.135,2.814-0.18c0.415-0.014,1.07-0.021,1.966-0.021c1.218,0,2.109,0.09,2.675,0.269
		c0.823,0.265,1.438,0.665,1.843,1.198c0.404,0.534,0.606,1.126,0.606,1.778c0,1.06-0.756,1.952-2.268,2.675l-0.053,0.081
		c0.773,0.208,1.407,0.498,1.901,0.871c0.494,0.373,0.874,0.828,1.139,1.365c0.193,0.394,0.29,0.91,0.29,1.548
		c0,1.068-0.485,2.02-1.455,2.854c-0.971,0.835-2.309,1.252-4.013,1.252h-1.601l-1.622,0.054c-1.433,0.015-2.271,0.021-2.514,0.021
		c-0.251,0-0.498-0.011-0.741-0.032v-0.121c0-0.088,0.018-0.15,0.054-0.188c0.043-0.044,0.125-0.081,0.247-0.11
		c0.896-0.186,1.402-0.313,1.521-0.381c0.118-0.067,0.198-0.177,0.241-0.327c0.086-0.285,0.129-1.021,0.129-2.209
		c0-0.106-0.004-0.243-0.011-0.408c-0.015-0.479-0.021-0.754-0.021-0.826v-1.115c0-1.887-0.021-3.535-0.064-4.944l-0.011-2.156
		l-0.011-0.268c-0.608-0.085-1.146-0.139-1.611-0.161C74.648,13.862,74.405,13.837,74.219,13.794z M78.473,19.219
		c0.359,0.072,0.735,0.107,1.131,0.107c1.55,0,2.602-0.34,3.153-1.021c0.553-0.68,0.829-1.357,0.829-2.03
		c0-0.301-0.048-0.607-0.146-0.918c-0.097-0.312-0.269-0.592-0.517-0.843c-0.247-0.25-0.555-0.437-0.92-0.559
		c-0.625-0.208-1.264-0.312-1.916-0.312c-0.61,0-1.178,0.068-1.701,0.204c-0.007,0.15-0.011,0.262-0.011,0.333
		c0,0.072,0.007,0.276,0.021,0.612c0.007,0.215,0.011,0.43,0.011,0.645l-0.032,1.3l0.011,0.773l0.075,1.515L78.473,19.219z
		 M81.002,26.523c0.71-0.05,1.306-0.2,1.786-0.451c0.223-0.114,0.486-0.32,0.791-0.617s0.542-0.653,0.71-1.069
		c0.169-0.415,0.253-0.816,0.253-1.203c0-0.293-0.059-0.655-0.178-1.085c-0.118-0.43-0.319-0.807-0.603-1.133
		c-0.283-0.326-0.705-0.594-1.265-0.806c-0.56-0.211-1.176-0.317-1.851-0.317c-1.306,0-2.037,0.025-2.195,0.075
		c-0.007,0.165-0.011,0.287-0.011,0.365l0.011,0.397l-0.011,0.806v0.913c0.021,1.684,0.062,2.679,0.118,2.986
		c0.058,0.309,0.253,0.573,0.587,0.795C79.479,26.402,80.098,26.517,81.002,26.523z"/>
	<path id="XMLID_199_" class="st3" d="M90.551,26.76c1.041-0.121,1.629-0.207,1.764-0.258c0.093-0.035,0.179-0.143,0.257-0.321
		v-0.118c0-0.179,0.028-0.826,0.086-1.943c0.014-0.314,0.021-0.622,0.021-0.923l-0.032-1.277l0.021-1.449l-0.011-2.694l0.011-1.932
		c0.007-0.816-0.056-1.313-0.188-1.492s-0.475-0.306-1.025-0.381c-0.552-0.075-0.856-0.131-0.913-0.167
		c-0.058-0.036-0.086-0.093-0.086-0.172c0-0.05,0.011-0.114,0.032-0.193c0.071-0.064,0.236-0.1,0.494-0.107
		c0.035,0,0.134-0.009,0.295-0.027c0.161-0.018,0.313-0.027,0.457-0.027h0.881l2.825-0.032c1.597,0,2.716,0.118,3.356,0.354
		s1.151,0.636,1.531,1.198c0.379,0.563,0.569,1.191,0.569,1.885c0,1.318-0.69,2.324-2.071,3.019
		c-0.235,0.122-0.422,0.229-0.558,0.322c0.243,0.515,0.583,1.134,1.019,1.856l1.362,2.34c0.544,0.86,0.92,1.4,1.128,1.619
		s0.46,0.4,0.758,0.544c0.297,0.144,0.797,0.279,1.499,0.408c0.007,0.072,0.011,0.129,0.011,0.172s-0.004,0.097-0.011,0.161
		c-0.981,0.015-2.131,0.021-3.448,0.021c-0.094,0-0.223-0.007-0.387-0.021c-0.509-0.976-1.106-2.048-1.794-3.217l-1.59-2.905
		c-0.215-0.301-0.393-0.489-0.532-0.564s-0.324-0.113-0.553-0.113l-0.913,0.01l-0.301-0.01c-0.021,0.229-0.032,0.698-0.032,1.407
		v3.673c-0.008,0.137,0.021,0.326,0.086,0.569c0.057,0.137,0.155,0.246,0.295,0.328s0.543,0.206,1.209,0.37l0.44,0.107
		c0.057,0.072,0.086,0.169,0.086,0.29c-0.193,0.036-0.329,0.054-0.408,0.054c-0.644,0-1.097-0.007-1.361-0.021
		c-0.136-0.007-0.247-0.011-0.333-0.011l-1.458,0.021l-1.426-0.011c-0.064,0-0.39,0.011-0.977,0.032l-0.214-0.043l-0.021-0.107
		C90.401,26.921,90.451,26.846,90.551,26.76z M94.537,19.734c0.193,0.007,0.336,0.011,0.43,0.011c0.516,0,1.109-0.061,1.783-0.182
		c0.473-0.093,0.855-0.245,1.149-0.456c0.293-0.21,0.538-0.523,0.735-0.938s0.296-0.844,0.296-1.287
		c0-0.486-0.154-1.001-0.462-1.544c-0.236-0.415-0.636-0.761-1.198-1.04s-1.237-0.418-2.024-0.418c-0.193,0-0.444,0.011-0.752,0.032
		c-0.029,0.372-0.043,0.658-0.043,0.858l0.054,2.005l-0.011,0.826C94.494,18.158,94.508,18.87,94.537,19.734z"/>
	<path id="XMLID_202_" class="st3" d="M106.057,26.749c0.101-0.057,0.189-0.086,0.269-0.086h0.247c0.05,0,0.136-0.003,0.258-0.011
		c0.551-0.05,0.877-0.1,0.978-0.15c0.25-0.136,0.465-0.372,0.644-0.709c0.373-0.73,0.792-1.765,1.258-3.104
		c0.222-0.637,0.361-1.024,0.419-1.16c0.179-0.43,0.351-0.881,0.516-1.354l1.01-2.825c0.157-0.444,0.537-1.461,1.139-3.051
		c0.15-0.401,0.333-0.938,0.549-1.611l0.315-0.021l0.376,0.011c0.308,0.609,0.579,1.264,0.815,1.966
		c0.129,0.373,0.34,0.928,0.633,1.665l1.631,4.415l0.869,2.396c0.458,1.361,0.759,2.197,0.902,2.509s0.275,0.518,0.397,0.617
		c0.036,0.029,0.17,0.072,0.403,0.129c0.232,0.058,0.396,0.101,0.488,0.129c0.329,0.094,0.559,0.172,0.688,0.236
		c0.028,0.079,0.043,0.14,0.043,0.183c0,0.036-0.011,0.09-0.032,0.161c-0.229,0.008-0.391,0.011-0.483,0.011
		c-0.365,0-1.01-0.011-1.934-0.032l-1.074-0.024l-1.3,0.017c-0.086,0-0.174-0.004-0.263-0.012c-0.09-0.009-0.167-0.013-0.231-0.013
		h-0.236c-0.079-0.007-0.15-0.028-0.215-0.064c0-0.1,0.018-0.196,0.054-0.29c0.086-0.043,0.165-0.067,0.236-0.075l1.128-0.075
		c0.293-0.015,0.516-0.054,0.666-0.118c0.043-0.129,0.064-0.226,0.064-0.291c0-0.129-0.094-0.463-0.279-1.001
		c-0.129-0.358-0.241-0.699-0.338-1.022c-0.097-0.322-0.478-1.384-1.143-3.186c-0.294-0.05-0.552-0.075-0.773-0.075l-2.299,0.021
		l-0.677-0.011c-0.244,0-0.513,0.018-0.806,0.054c-0.094,0.215-0.154,0.369-0.183,0.462l-0.947,2.954
		c-0.401,1.125-0.602,1.744-0.602,1.858c0,0.064,0.032,0.172,0.097,0.322c0.15,0.043,0.351,0.083,0.602,0.118l1.461,0.129
		c0.079,0.064,0.118,0.122,0.118,0.172c0,0.036-0.011,0.09-0.032,0.161c-0.322,0.008-0.569,0.011-0.741,0.011
		c-0.573,0-1.239-0.018-1.998-0.054c-0.351-0.014-0.602-0.021-0.752-0.021s-0.412,0.008-0.784,0.021
		c-0.243,0.015-0.419,0.021-0.526,0.021c-0.172,0-0.394-0.011-0.666-0.032v-0.064C106.014,26.903,106.028,26.835,106.057,26.749z
		 M111.183,20.304c0.767,0.043,1.64,0.064,2.621,0.064c0.559,0,1.049-0.018,1.472-0.054c-0.071-0.279-0.153-0.541-0.247-0.784
		c-0.465-1.246-0.722-1.933-0.771-2.062l-0.977-2.48l-0.107-0.193c-0.043,0.086-0.201,0.455-0.474,1.106
		c-0.459,1.117-0.789,1.987-0.989,2.609c-0.094,0.279-0.19,0.557-0.291,0.833c-0.1,0.275-0.163,0.469-0.188,0.58
		c-0.025,0.111-0.063,0.224-0.113,0.338L111.183,20.304z"/>
	<path id="XMLID_205_" class="st3" d="M124.173,26.76c1.04-0.121,1.628-0.207,1.764-0.258c0.093-0.035,0.178-0.143,0.257-0.321
		v-0.118c0-0.179,0.028-0.826,0.085-1.943c0.015-0.314,0.021-0.622,0.021-0.923l-0.032-1.277l0.021-1.449l-0.011-2.694l0.011-1.932
		c0.007-0.816-0.056-1.313-0.188-1.492c-0.133-0.179-0.475-0.306-1.026-0.381s-0.855-0.131-0.913-0.167s-0.086-0.093-0.086-0.172
		c0-0.05,0.011-0.114,0.032-0.193c0.071-0.064,0.236-0.1,0.494-0.107c0.036,0,0.135-0.009,0.296-0.027
		c0.161-0.018,0.313-0.027,0.456-0.027h0.881l2.825-0.032c1.597,0,2.716,0.118,3.357,0.354c0.641,0.236,1.15,0.636,1.53,1.198
		c0.38,0.563,0.569,1.191,0.569,1.885c0,1.318-0.69,2.324-2.07,3.019c-0.236,0.122-0.422,0.229-0.558,0.322
		c0.242,0.515,0.582,1.134,1.019,1.856l1.361,2.34c0.545,0.86,0.921,1.4,1.129,1.619c0.207,0.219,0.46,0.4,0.757,0.544
		c0.298,0.144,0.797,0.279,1.499,0.408c0.007,0.072,0.011,0.129,0.011,0.172s-0.004,0.097-0.011,0.161
		c-0.981,0.015-2.131,0.021-3.448,0.021c-0.093,0-0.222-0.007-0.387-0.021c-0.509-0.976-1.106-2.048-1.794-3.217l-1.59-2.905
		c-0.215-0.301-0.392-0.489-0.531-0.564s-0.324-0.113-0.554-0.113l-0.913,0.01l-0.301-0.01c-0.021,0.229-0.032,0.698-0.032,1.407
		v3.673c-0.007,0.137,0.021,0.326,0.086,0.569c0.058,0.137,0.156,0.246,0.296,0.328s0.542,0.206,1.208,0.37l0.44,0.107
		c0.058,0.072,0.086,0.169,0.086,0.29c-0.193,0.036-0.329,0.054-0.407,0.054c-0.644,0-1.098-0.007-1.362-0.021
		c-0.136-0.007-0.246-0.011-0.332-0.011l-1.459,0.021l-1.426-0.011c-0.064,0-0.39,0.011-0.976,0.032l-0.215-0.043l-0.021-0.107
		C124.022,26.921,124.072,26.846,124.173,26.76z M128.158,19.734c0.193,0.007,0.337,0.011,0.43,0.011
		c0.516,0,1.11-0.061,1.783-0.182c0.473-0.093,0.855-0.245,1.149-0.456c0.294-0.21,0.539-0.523,0.736-0.938
		c0.196-0.415,0.295-0.844,0.295-1.287c0-0.486-0.154-1.001-0.462-1.544c-0.236-0.415-0.636-0.761-1.197-1.04
		c-0.563-0.279-1.237-0.418-2.025-0.418c-0.193,0-0.444,0.011-0.752,0.032c-0.028,0.372-0.043,0.658-0.043,0.858l0.054,2.005
		l-0.011,0.826C128.115,18.158,128.13,18.87,128.158,19.734z"/>
	<path id="XMLID_208_" class="st3" d="M139.582,13.257h0.516c0.186,0,0.594,0.01,1.225,0.029c0.974,0.038,1.783,0.057,2.428,0.057
		l1.257-0.021c0.179,0,0.351,0.015,0.516,0.043c0.05,0.058,0.075,0.118,0.075,0.183v0.118l-0.271,0.129h-0.118l-0.605,0.011
		l-0.313-0.011c-0.245,0-0.442,0.054-0.594,0.161c-0.115,0.079-0.172,0.161-0.172,0.247c0,0.093,0.05,0.211,0.15,0.354
		c0.035,0.058,0.093,0.144,0.172,0.258c0.144,0.244,0.333,0.527,0.569,0.85c0.337,0.473,0.695,1.032,1.075,1.677
		c0.15,0.258,0.309,0.506,0.473,0.742l1.634,2.473c0.108-0.136,0.255-0.337,0.441-0.602l1.551-2.226l1.787-2.677
		c0.157-0.243,0.25-0.422,0.279-0.537c0.014-0.057,0.021-0.118,0.021-0.183c0-0.15-0.068-0.272-0.204-0.365
		c-0.223-0.15-0.702-0.261-1.439-0.333c-0.051-0.007-0.118-0.018-0.204-0.032c-0.051-0.086-0.075-0.157-0.075-0.215
		c0-0.043,0.003-0.089,0.011-0.14l0.559-0.011l2.02,0.054l1.622-0.032c0.043,0,0.193,0.004,0.451,0.011l-0.032,0.376
		c-0.051,0.015-0.129,0.025-0.236,0.032l-0.258,0.032c-0.043,0.007-0.111,0.015-0.204,0.021c-0.15,0.058-0.269,0.118-0.354,0.183
		c-1.053,1.11-1.948,2.159-2.686,3.147c-0.738,0.988-1.361,1.887-1.869,2.696c-0.165,0.265-0.298,0.462-0.397,0.591
		c-0.187,0.244-0.298,0.423-0.333,0.537c-0.079,0.28-0.118,0.703-0.118,1.27c0,2.232,0.039,3.548,0.118,3.95
		c0.043,0.201,0.1,0.323,0.172,0.366c0.186,0.093,0.927,0.204,2.224,0.333v0.126c0,0.084-0.025,0.186-0.075,0.304l-2.755-0.118
		l-1.84,0.097h-1.506c-0.144,0-0.302-0.004-0.474-0.011c-0.029-0.079-0.043-0.136-0.043-0.172c0-0.035,0.011-0.086,0.032-0.15
		c0.05-0.043,0.101-0.067,0.151-0.075l1.392-0.215c0.481-0.157,0.751-0.265,0.809-0.322c0.086-0.086,0.141-0.218,0.162-0.397
		c0.007-0.129,0.011-1.124,0.011-2.986c0-0.694-0.023-1.119-0.07-1.273c-0.047-0.154-0.198-0.424-0.456-0.811l-1.407-2.138
		l-2.396-3.491c-0.416-0.604-0.777-1.009-1.085-1.215c-0.137-0.092-0.477-0.164-1.021-0.213c-0.058,0-0.144-0.007-0.258-0.021
		L139.582,13.257z"/>
</g>
</svg>
