<?xml version="1.0" encoding="utf-8"?>
<!-- Generator: Adobe Illustrator 19.0.0, SVG Export Plug-In . SVG Version: 6.00 Build 0)  -->
<svg version="1.1" id="Layer_1" xmlns="http://www.w3.org/2000/svg" xmlns:xlink="http://www.w3.org/1999/xlink" x="0px" y="0px"
	 width="245px" height="305px" viewBox="-176 282.5 245 305" style="enable-background:new -176 282.5 245 305;"
	 xml:space="preserve">
<style type="text/css">
	.st0{opacity:0;}
	.st1{fill:none;stroke:#ABABAB;stroke-width:3;stroke-miterlimit:10;}
	.st2{fill:#ABABAB;}
	.st3{fill:#FFFFFF;}
	.st4{fill:#222222;}
	.st5{fill:none;stroke:#333333;stroke-width:4;stroke-miterlimit:10;}
	.st6{opacity:0.75;}
	.st7{fill:#F8961D;}
	.st8{fill:none;stroke:#CCCCCC;stroke-width:3;stroke-miterlimit:10;}
	.st9{fill:#969696;}
	.st10{fill:#BBBBBB;}
	.st11{fill:#676767;}
	.st12{fill:none;stroke:#E2E2E2;stroke-width:3;stroke-miterlimit:10;}
	.st13{fill:#E2E2E2;}
	.st14{fill:none;stroke:#C9C9C9;stroke-miterlimit:10;}
	.st15{fill:none;stroke:#8C191D;stroke-miterlimit:10;}
	.st16{fill:#8C191D;stroke:#8C191D;stroke-miterlimit:10;}
	.st17{fill:#ED2224;}
	.st18{fill:none;stroke:#ED2224;stroke-miterlimit:10;}
	.st19{fill:#369746;}
	.st20{fill:none;stroke:#369746;stroke-miterlimit:10;}
	.st21{fill:#333333;}
	.st22{fill:#748F40;}
	.st23{fill:#DBDADA;}
	.st24{fill:#82B641;}
	.st25{fill:#91C03E;}
	.st26{fill:#82C341;}
	.st27{fill:#F3F3F3;}
	.st28{fill:none;stroke:#676767;stroke-width:2;stroke-miterlimit:10;}
	.st29{fill:#333333;stroke:#333333;stroke-width:0.5776;stroke-miterlimit:10;}
	.st30{fill:none;stroke:#666766;stroke-width:4;stroke-miterlimit:10;}
	.st31{fill:#454545;}
	.st32{fill:#3399CC;}
	.st33{fill:#CDCCCC;}
	.st34{opacity:0.2;fill:#333333;enable-background:new    ;}
	.st35{fill:#343433;}
	.st36{fill:#CCCBCB;}
	.st37{fill:#8C191D;}
	.st38{fill:#666766;}
	.st39{fill:none;}
	.st40{fill:none;stroke:#F3F3F3;stroke-width:4;stroke-miterlimit:10;}
	.st41{fill:none;stroke:#F3F3F3;stroke-width:3.8;stroke-miterlimit:10;}
	.st42{fill:none;stroke:#738D40;stroke-width:2;stroke-miterlimit:10;}
	.st43{fill-rule:evenodd;clip-rule:evenodd;fill:#FFFFFF;}
</style>
<rect x="-182" y="274.7" class="st0" width="256" height="316.3"/>
<g id="XMLID_2_">
	<circle id="XMLID_4_" class="st1" cx="-161.8" cy="292.6" r="7"/>
	<line id="XMLID_3_" class="st1" x1="-168" y1="298.5" x2="-173.4" y2="303.6"/>
</g>
<path id="XMLID_463_" class="st2" d="M-138.3,504.6c-0.5,0.7-0.4,1.7-1.7,1.4c-0.6-0.1-1.8-2.1-2.6-3.5c-0.7-1.3-2.1-4.2-1.9-4.9
	c0.5-1.3,1.2-0.6,2.1-0.6c0.3,0,2-4.6-1.4-10.4c-0.1-0.2-0.7-0.4-1.2-0.1c-1.5,0.7-3.3,1.5-4.5,3.7c-0.9,1.7-2.2,4.4,1.3,12.2
	c0.3,0.7,0.7,1.7,1.4,2.9c0.1,0.2,0.3,0.4,0.4,0.6c4.8,7.8,7.9,8.2,9.9,8.4c2.5,0.3,4.2-0.8,5.6-1.7c0.5-0.3,0.6-0.9,0.5-1.1
	C-133.3,505.5-138.1,504.4-138.3,504.6z M-145.7,504.9c-0.1-0.2-0.2-0.3-0.4-0.5c-0.6-1-1.1-1.8-1.3-2.4c-3.2-6.4-2.2-8.8-1.5-10.2
	c0.9-2,2.4-2.7,3.6-3.3c0.4-0.2,0.9-0.1,1,0.1c0.2,0.3,0.3,0.6,0.5,0.8c0,0-0.1,0-0.1,0c-1.3,0.6-2.8,1.2-3.8,3.1
	c-0.8,1.4-1.9,3.7,1,10.3c0.2,0.6,0.6,1.4,1.2,2.4c0,0,0,0,0,0C-145.5,505.1-145.6,505-145.7,504.9z"/>
<g id="email_icon_2_">
	<path id="XMLID_460_" class="st2" d="M-98.9,489.7c1,1,1.7,2.2,2.1,3.5c0.5,1.3,0.7,2.6,0.7,4c0,2.8-0.8,5.1-2.4,7
		c-1.6,1.9-3.5,2.9-5.8,2.9c-1.2,0-2.2-0.2-3-0.6c-0.8-0.4-1.3-0.9-1.5-1.6h-0.1c-0.3,0.3-0.5,0.6-0.8,0.8c-0.3,0.3-0.6,0.5-0.9,0.7
		c-0.3,0.2-0.7,0.3-1,0.4c-0.3,0.1-0.7,0.1-1.2,0.1c-1.3,0-2.4-0.4-3.2-1.3c-0.7-0.9-1.1-2-1.1-3.4c0-1.1,0.2-2.1,0.7-3.3
		c0.5-1.1,1.1-2.1,1.8-3.1c0.7-0.9,1.6-1.6,2.7-2.2c1-0.6,2.1-0.9,3.3-0.9c0.8,0,1.3,0.1,1.7,0.4c0.4,0.3,0.7,0.7,0.9,1.2h0l0.5-1.4
		h4.2l-3.3,9.1c-0.1,0.2-0.2,0.5-0.2,0.9c-0.1,0.4-0.1,0.7-0.1,0.9c0,0.4,0.1,0.8,0.3,1.1c0.2,0.3,0.5,0.4,0.9,0.4
		c1.7,0,3.1-0.8,4.2-2.4c1-1.6,1.6-3.7,1.6-6.2c0-1.3-0.2-2.5-0.6-3.6c-0.4-1.1-1.1-2-1.9-2.9c-0.8-0.8-1.9-1.5-3.2-1.9
		c-1.3-0.5-2.7-0.7-4.4-0.7c-1.6,0-3.1,0.3-4.6,0.9c-1.5,0.6-2.8,1.5-4,2.6c-1.2,1.1-2.1,2.5-2.8,4.1c-0.7,1.6-1.1,3.4-1.1,5.4
		c0,1.9,0.3,3.7,0.9,5.1c0.6,1.5,1.4,2.7,2.4,3.7c1,1,2.2,1.8,3.6,2.3c1.4,0.5,2.9,0.8,4.5,0.8c1.9,0,3.6-0.2,5-0.7
		c1.5-0.5,2.7-1.2,3.9-2.1l0.6,1c-1.3,1-2.7,1.8-4.2,2.4c-1.6,0.6-3.4,0.9-5.4,0.9c-1.7,0-3.5-0.3-5.2-0.8c-1.7-0.6-3.3-1.4-4.6-2.5
		c-1.4-1.1-2.4-2.5-3.3-4.1c-0.8-1.7-1.2-3.6-1.2-5.8c0-1.9,0.4-3.8,1.1-5.5c0.7-1.8,1.8-3.3,3.2-4.7c1.4-1.4,3-2.5,5-3.3
		c2-0.8,4.1-1.3,6.5-1.3c2.1,0,3.8,0.3,5.3,0.9C-101.1,487.8-99.9,488.7-98.9,489.7z M-106.7,496.5c0-0.6-0.2-1.1-0.4-1.5
		c-0.3-0.4-0.7-0.6-1.3-0.6c-0.6,0-1.1,0.3-1.6,0.7c-0.5,0.5-1,1.1-1.4,1.9c-0.4,0.8-0.7,1.7-0.9,2.7c-0.2,1-0.4,2-0.4,3
		c0,0.7,0.1,1.3,0.3,1.7c0.2,0.4,0.6,0.6,1,0.6c0.4,0,0.8-0.1,1.1-0.3c0.3-0.2,0.7-0.6,1-1L-106.7,496.5z"/>
	<g id="shadow_2_">
		<path id="XMLID_459_" class="st2" d="M-104.2,512c-1.4,0.5-3.1,0.7-5,0.7c-1.6,0-3.1-0.2-4.5-0.8c-1.4-0.5-2.5-1.3-3.6-2.3
			c-1-1-1.8-2.2-2.4-3.7c-0.4-1.1-0.7-2.4-0.8-3.9h-3.2c0.1,1.8,0.5,3.3,1.2,4.7c0.8,1.7,1.9,3,3.3,4.1c1.3,1.1,2.9,1.9,4.6,2.5
			c1.7,0.6,3.5,0.8,5.2,0.8c2,0,3.8-0.3,5.4-0.9c1.6-0.6,3-1.4,4.2-2.4l-0.6-1C-101.5,510.9-102.8,511.5-104.2,512z"/>
		<path id="XMLID_458_" class="st2" d="M-98.9,502.2c-0.2,0.4-0.4,0.7-0.6,1c-1.1,1.6-2.4,2.4-4.2,2.4c-0.4,0-0.7-0.1-0.9-0.4
			c-0.2-0.3-0.3-0.6-0.3-1.1c0-0.2,0-0.5,0.1-0.9c0.1-0.4,0.1-0.7,0.2-0.9l0.1-0.1h-4.2l-0.5,1.5c-0.4,0.5-0.7,0.8-1,1
			c-0.3,0.2-0.7,0.3-1.1,0.3c-0.5,0-0.8-0.2-1-0.6c-0.2-0.4-0.3-1-0.3-1.7c0-0.2,0-0.4,0-0.6h-4.4c0,0.1,0,0.1,0,0.2
			c0,1.4,0.4,2.5,1.1,3.4c0.8,0.8,1.8,1.3,3.2,1.3c0.5,0,0.9,0,1.2-0.1c0.3-0.1,0.6-0.2,1-0.4c0.3-0.2,0.6-0.4,0.9-0.7
			c0.3-0.3,0.5-0.6,0.8-0.8h0.1c0.2,0.6,0.7,1.2,1.5,1.6c0.8,0.4,1.8,0.6,3,0.6c2.3,0,4.3-1,5.8-2.9c0.5-0.6,0.9-1.3,1.3-2
			L-98.9,502.2L-98.9,502.2z"/>
	</g>
</g>
<g id="XMLID_426_">
	<polygon id="XMLID_428_" class="st3" points="-163.8,426.9 -159,422.7 -161.1,420.9 -166,425.1 -170.8,420.9 -173,422.7 
		-168.1,426.9 -166,428.7 	"/>
	<polygon id="XMLID_427_" class="st3" points="-163.8,419.1 -159,414.9 -161.1,413.1 -166,417.3 -170.8,413.1 -173,414.9 
		-168.1,419.1 -166,420.9 	"/>
</g>
<g id="XMLID_430_">
	<polygon id="XMLID_452_" class="st4" points="-95.1,357.8 -104.1,362.7 -104.1,364.6 -95.1,359.7 -86.1,364.6 -86.1,362.7 	"/>
	<polygon id="XMLID_446_" class="st4" points="-95.1,360.7 -102.1,364.8 -102.1,372.4 -96.1,372.4 -96.1,367.4 -94.1,367.4 
		-94.1,372.4 -88.1,372.4 -88.1,364.8 	"/>
	<rect id="XMLID_431_" x="-90.6" y="357.8" class="st4" width="2.5" height="4.2"/>
</g>
<g id="XMLID_453_">
	<g id="XMLID_1041_">
		<line id="XMLID_1043_" class="st5" x1="27.1" y1="337.3" x2="39.7" y2="349.9"/>
		<line id="XMLID_1042_" class="st5" x1="39.7" y1="337.3" x2="27.1" y2="349.9"/>
	</g>
</g>
<g id="XMLID_454_" class="st6">
	<g id="XMLID_470_">
		<circle id="XMLID_471_" class="st7" cx="-162.1" cy="391.1" r="12.5"/>
	</g>
	<g id="XMLID_455_">
		<path id="XMLID_469_" class="st3" d="M-162.2,397.9c0-1.5-0.6-2.9-1.6-3.9l0,0c-1-1-2.4-1.6-3.9-1.6l0,0v-2.6
			c2.2,0,4.3,0.9,5.8,2.4l0,0c1.5,1.5,2.4,3.5,2.4,5.8l0,0H-162.2L-162.2,397.9z"/>
		<path id="XMLID_466_" class="st3" d="M-158.3,397.9c0-2.6-1-4.9-2.8-6.6l0,0c-1.7-1.7-4-2.8-6.6-2.8l0,0v-2.6c6.6,0,12,5.4,12,12
			l0,0L-158.3,397.9L-158.3,397.9z"/>
		<path id="XMLID_456_" class="st3" d="M-164.2,396.1c0-1-0.8-1.8-1.8-1.8s-1.8,0.8-1.8,1.8c0,1,0.8,1.8,1.8,1.8
			C-165,397.9-164.2,397.1-164.2,396.1z"/>
	</g>
</g>
<g id="XMLID_429_">
	<circle id="XMLID_473_" class="st8" cx="-138.1" cy="292.6" r="7"/>
	<line id="XMLID_472_" class="st8" x1="-144.4" y1="298.5" x2="-149.8" y2="303.6"/>
</g>
<g id="XMLID_496_">
	<path id="XMLID_497_" class="st3" d="M-170.2,446.5v-5.8h-1v-1.7h1v-0.3c0-0.9,0.3-1.9,0.9-2.5c0.6-0.5,1.4-0.7,2.1-0.7
		c0.5,0,0.9,0.1,1.2,0.2l-0.1,1.8c-0.2-0.1-0.4-0.1-0.7-0.1c-0.8,0-1.1,0.6-1.1,1.3v0.4h1.5v1.7h-1.5v5.8L-170.2,446.5L-170.2,446.5
		z"/>
</g>
<g id="XMLID_479_">
	<rect id="XMLID_495_" x="-143.4" y="439.3" class="st3" width="2.3" height="6.9"/>
	<path id="XMLID_494_" class="st3" d="M-142.3,438.3L-142.3,438.3c-0.8,0-1.3-0.5-1.3-1.2c0-0.7,0.5-1.2,1.3-1.2
		c0.8,0,1.3,0.5,1.3,1.2C-141,437.8-141.5,438.3-142.3,438.3z"/>
	<path id="XMLID_482_" class="st3" d="M-132.9,446.2h-2.3v-3.7c0-0.9-0.3-1.6-1.2-1.6c-0.6,0-1,0.4-1.2,0.8
		c-0.1,0.1-0.1,0.4-0.1,0.6v3.9h-2.3c0,0,0-6.3,0-6.9h2.3v1c0.3-0.5,0.8-1.1,2.1-1.1c1.5,0,2.6,1,2.6,3.1V446.2z"/>
</g>
<path id="XMLID_478_" class="st3" d="M-157,444c0,0-1.8-0.3-2.2-1.8c0,0,1.3,0.1,1.1,0c-0.2-0.1-2-0.7-1.9-2.5c0,0,1.2,0.4,1.1,0.2
	c-0.3-0.4-1.7-1.3-0.7-3.3c0,0,2.6,2.7,5.2,2.6c0,0,0,0,0-0.1c-0.5-1.2,1.5-4.6,4.3-2.2c0,0,1.3-0.4,1.6-0.6c0,0-0.4,1.1-0.9,1.4
	c0,0,1.1-0.3,1.3-0.3c0,0-0.7,1-1.3,1.2c-0.1,0,0-0.1,0,0c0.2,2.8-2.3,10-10.9,6.4C-160.7,444.9-158.3,445.2-157,444z"/>
<g id="XMLID_344_">
	<path id="XMLID_477_" class="st3" d="M-119.2,440.2h-4.2v1.7h2.5c-0.1,0.4-0.3,1-0.9,1.5c-0.4,0.3-0.9,0.5-1.6,0.5
		c-1.2,0-2.2-0.8-2.6-1.9c-0.1-0.3-0.1-0.6-0.1-0.9s0.1-0.6,0.1-0.9c0.4-1.1,1.4-1.9,2.6-1.9c0.8,0,1.4,0.4,1.7,0.7l1.3-1.2
		c-0.8-0.7-1.8-1.2-3-1.2c-1.8,0-3.3,1-4,2.5c-0.3,0.6-0.5,1.3-0.5,2s0.2,1.4,0.5,2c0.7,1.5,2.3,2.5,4,2.5c1.2,0,2.2-0.4,3-1.1
		c0.8-0.8,1.3-1.9,1.3-3.3C-119.1,440.8-119.2,440.5-119.2,440.2z"/>
	<polygon id="XMLID_474_" class="st3" points="-114.4,440.4 -115.7,440.4 -115.7,439.1 -117,439.1 -117,440.4 -118.2,440.4 
		-118.2,441.7 -117,441.7 -117,443 -115.7,443 -115.7,441.7 -114.4,441.7 	"/>
</g>
<g id="XMLID_510_">
	<path id="XMLID_511_" class="st3" d="M-150.2,429.9v-9.4h-1.6v-2.8h1.6v-0.5c0-1.5,0.4-3.1,1.5-4.1c0.9-0.9,2.3-1.2,3.3-1.2
		c0.8,0,1.5,0.1,2,0.2l-0.1,2.9c-0.3-0.1-0.7-0.2-1.2-0.2c-1.2,0-1.8,1-1.8,2.2v0.6h2.4v2.8h-2.4v9.4H-150.2z"/>
</g>
<g id="XMLID_506_">
	<rect id="XMLID_509_" x="-110" y="418.1" class="st3" width="3.7" height="11.3"/>
	<path id="XMLID_508_" class="st3" d="M-108.1,416.5L-108.1,416.5c-1.3,0-2.1-0.9-2.1-1.9c0-1.1,0.8-1.9,2.1-1.9s2.1,0.8,2.1,1.9
		C-106,415.7-106.8,416.5-108.1,416.5z"/>
	<path id="XMLID_507_" class="st3" d="M-92.9,429.3h-3.7v-6c0-1.5-0.5-2.5-1.9-2.5c-1,0-1.6,0.7-1.9,1.4c-0.1,0.2-0.1,0.6-0.1,0.9
		v6.3h-3.7c0,0,0-10.2,0-11.3h3.7v1.6c0.5-0.8,1.4-1.9,3.3-1.9c2.4,0,4.3,1.6,4.3,5.1L-92.9,429.3z"/>
</g>
<path id="XMLID_505_" class="st3" d="M-130.4,425.8c0,0-3-0.4-3.6-3c0,0,2.1,0.1,1.7-0.1c-0.4-0.1-3.3-1.1-3.1-4c0,0,2,0.7,1.7,0.4
	c-0.4-0.6-2.7-2.1-1.2-5.3c0,0,4.3,4.5,8.4,4.3c0,0,0.1-0.1,0-0.2c-0.8-1.9,2.4-7.5,6.9-3.6c0,0,2.2-0.6,2.6-1.1
	c0,0-0.7,1.7-1.5,2.3c0,0,1.8-0.5,2.1-0.5c0,0-1.1,1.6-2,2c-0.1,0.1,0-0.1,0,0c0.4,4.5-3.8,16.2-17.8,10.4
	C-136.4,427.3-132.5,427.7-130.4,425.8z"/>
<g id="XMLID_502_">
	<path id="XMLID_504_" class="st3" d="M-72.6,419.5h-7.5v3h4.4c-0.1,0.7-0.6,1.8-1.6,2.6c-0.7,0.5-1.6,0.8-2.8,0.8
		c-2.1,0-3.9-1.4-4.5-3.3c-0.2-0.5-0.3-1-0.3-1.6s0.1-1.1,0.3-1.6c0.6-1.9,2.4-3.3,4.6-3.3c1.5,0,2.5,0.6,3.1,1.2l2.3-2.2
		c-1.4-1.3-3.2-2.1-5.3-2.1c-3.1,0-5.8,1.8-7.1,4.4c-0.5,1.1-0.9,2.3-0.9,3.6c0,1.3,0.3,2.5,0.9,3.6c1.3,2.6,4,4.4,7.1,4.4
		c2.2,0,4-0.7,5.3-1.9c1.5-1.4,2.4-3.4,2.4-5.9C-72.4,420.5-72.5,420-72.6,419.5z"/>
	<polygon id="XMLID_503_" class="st3" points="-64,419.8 -66.3,419.8 -66.3,417.5 -68.6,417.5 -68.6,419.8 -70.8,419.8 -70.8,422.1 
		-68.6,422.1 -68.6,424.4 -66.3,424.4 -66.3,422.1 -64,422.1 	"/>
</g>
<g id="XMLID_530_">
	<path id="XMLID_535_" class="st9" d="M-57.5,285.7c-4.8,0-8.8,3.9-8.8,8.7c0,4.8,3.9,8.8,8.8,8.8c4.8,0,8.8-4.1,8.8-8.8
		C-48.8,289.6-52.7,285.7-57.5,285.7z M-57.5,301.5c-3.9,0-7-3.1-7-7s3.1-7,7-7c3.9,0,7,3.1,7,7S-53.7,301.5-57.5,301.5z"/>
	<g id="XMLID_531_">
		<path id="XMLID_534_" class="st9" d="M-56.9,295.3c0,0.4-0.3,0.8-0.8,0.8h-0.2c-0.4,0-0.8-0.4-0.8-0.8V290c0-0.4,0.3-0.8,0.8-0.8
			h0.2c0.4,0,0.8,0.3,0.8,0.8V295.3z"/>
		<path id="XMLID_533_" class="st9" d="M-53.4,295.3c0,0.4-0.3,0.8-0.8,0.8h-3.6c-0.4,0-0.8-0.4-0.8-0.8v-0.2c0-0.4,0.3-0.8,0.8-0.8
			h3.6c0.4,0,0.8,0.4,0.8,0.8V295.3z"/>
	</g>
</g>
<g id="XMLID_220_">
	<g id="XMLID_475_">
		<path id="XMLID_476_" class="st10" d="M-43.2,304.9l2-5.6c-2.1-1.6-3.3-3.9-3.3-6.2c0-4.9,5.2-8.9,11.6-8.9c6.4,0,11.6,4,11.6,8.9
			c0,4.9-5.2,8.9-11.6,8.9c-1.4,0-2.8-0.2-4-0.6c-0.6,0.2-2.5,1.2-4,2.1L-43.2,304.9L-43.2,304.9z M-32.8,286.2
			c-5.3,0-9.7,3.1-9.7,6.9c0,1.9,1.1,3.7,3,5l0.6,0.4l-0.7,2c2.1-1.1,2.5-1.1,2.7-1.1h0.1l0.2,0.1c1.2,0.4,2.4,0.5,3.7,0.5
			c5.3,0,9.7-3.1,9.7-6.9C-23.2,289.3-27.5,286.2-32.8,286.2L-32.8,286.2z"/>
	</g>
	<g id="XMLID_225_">
		<g id="XMLID_345_">
			<polygon id="XMLID_346_" class="st10" points="-27.1,290.9 -38.1,290.9 -38.1,289.9 -27.1,289.9 			"/>
		</g>
		<g id="XMLID_235_">
			<polygon id="XMLID_343_" class="st10" points="-27.1,293.3 -38.1,293.3 -38.1,292.3 -27.1,292.3 			"/>
		</g>
		<g id="XMLID_230_">
			<polygon id="XMLID_234_" class="st10" points="-27.1,295.8 -38.1,295.8 -38.1,294.8 -27.1,294.8 			"/>
		</g>
	</g>
</g>
<g id="XMLID_218_">
	<g id="XMLID_219_">
		<polygon id="XMLID_224_" class="st3" points="-53.6,419.9 -59.9,414.3 -59.9,427.9 		"/>
		<path id="XMLID_223_" class="st3" d="M-48.2,422.9l11.2-9.8c-0.1-0.1-0.3-0.1-0.4-0.1l-21.6,0c-0.2,0-0.3,0.1-0.4,0.1L-48.2,422.9
			z"/>
		<polygon id="XMLID_222_" class="st3" points="-43.1,420.1 -36.5,427.9 -36.5,414.4 		"/>
		<path id="XMLID_221_" class="st3" d="M-44,420.9l-3.8,3.3c-0.1,0.1-0.3,0.1-0.4,0.1c-0.1,0-0.3-0.1-0.4-0.2l-4-3.5l-6.5,8.2
			c0,0,0.1,0,0.1,0l21.6,0c0,0,0.1,0,0.1,0L-44,420.9z"/>
	</g>
</g>
<polygon id="XMLID_229_" class="st3" points="-14.5,418.7 -21.3,418.7 -21.3,412 -25.8,412 -25.8,418.7 -32.5,418.7 -32.5,423.2 
	-25.8,423.2 -25.8,430 -21.3,430 -21.3,423.2 -14.5,423.2 "/>
<g id="XMLID_226_">
	<g id="XMLID_1242_">
		<g id="XMLID_1250_">
			<path id="XMLID_1251_" class="st11" d="M-98.8,330l2.1-5.9c-2.2-1.8-3.5-4.1-3.5-6.6c0-5.2,5.6-9.5,12.4-9.5
				c6.8,0,12.4,4.3,12.4,9.5c0,5.2-5.6,9.5-12.4,9.5c-1.5,0-2.9-0.2-4.3-0.6c-0.7,0.2-2.6,1.3-4.2,2.2L-98.8,330L-98.8,330z
				 M-87.7,310.1c-5.7,0-10.3,3.3-10.3,7.4c0,2,1.1,3.9,3.2,5.3l0.7,0.5l-0.8,2.1c2.2-1.2,2.7-1.2,2.9-1.2h0.2l0.2,0.1
				c1.3,0.4,2.6,0.6,4,0.6c5.7,0,10.3-3.3,10.3-7.4C-77.4,313.4-82.1,310.1-87.7,310.1L-87.7,310.1z"/>
		</g>
		<g id="XMLID_1243_">
			<g id="XMLID_1248_">
				<polygon id="XMLID_1249_" class="st11" points="-81.6,315.1 -93.3,315.1 -93.3,314 -81.6,314 				"/>
			</g>
			<g id="XMLID_1246_">
				<polygon id="XMLID_1247_" class="st11" points="-81.6,317.7 -93.3,317.7 -93.3,316.6 -81.6,316.6 				"/>
			</g>
			<g id="XMLID_1244_">
				<polygon id="XMLID_1245_" class="st11" points="-81.6,320.3 -93.3,320.3 -93.3,319.2 -81.6,319.2 				"/>
			</g>
		</g>
	</g>
</g>
<g id="XMLID_227_">
	<g id="XMLID_615_">
		<polyline id="XMLID_618_" class="st12" points="-170.5,454.8 -170.5,507.3 -161,507.3 		"/>
		<g id="XMLID_616_">
			<polygon id="XMLID_617_" class="st13" points="-162,511 -155.5,507.3 -162,503.5 			"/>
		</g>
	</g>
</g>
<g id="XMLID_485_">
	<line id="XMLID_348_" class="st14" x1="-78.9" y1="359.5" x2="-74.7" y2="372.4"/>
	<path id="XMLID_347_" class="st14" d="M-78.9,359.4c0,0,1.2-2.1,5.7,0c2.7,1.3,3.6,0.6,5-0.7l2.6,6.6c0,0-2.3,2-5.3,0.5
		c-3.1-1.7-4.8,0-5.9,0.5L-78.9,359.4z"/>
</g>
<g id="XMLID_350_">
	<line id="XMLID_228_" class="st15" x1="-58.9" y1="359.5" x2="-54.7" y2="372.4"/>
	<path id="XMLID_211_" class="st16" d="M-58.9,359.4c0,0,1.2-2.1,5.7,0c2.7,1.3,3.6,0.6,5-0.7l2.6,6.6c0,0-2.3,2-5.3,0.5
		c-3.1-1.7-4.8,0-5.9,0.5L-58.9,359.4z"/>
</g>
<g id="XMLID_565_">
	<g id="XMLID_566_">
		<g id="XMLID_567_">
			<rect id="XMLID_569_" x="-14.3" y="360.2" class="st17" width="3.1" height="5.7"/>
			<path id="XMLID_568_" class="st18" d="M-21.8,361l1.2-0.8h3.3l1,0.8h2.1v4.2c-2.3-0.1-2.8,3.5-3.9,4.5c-0.3,0.3-1.5,0.5-1.8,0.1
				c-0.3-0.4,0.7-1.7,0.7-1.7l0-1.8l-1.5-0.1l-1-0.7L-21.8,361L-21.8,361z"/>
		</g>
	</g>
</g>
<g id="XMLID_540_">
	<g id="XMLID_541_">
		<g id="XMLID_542_">
			<rect id="XMLID_553_" x="-39.5" y="364.3" class="st19" width="3.1" height="5.7"/>
			<path id="XMLID_552_" class="st20" d="M-28.9,369.2l-1.2,0.8h-3.3l-1-0.8h-2.1v-4.2c2.3,0.1,2.8-3.5,3.9-4.5
				c0.3-0.3,1.5-0.5,1.8-0.1c0.3,0.4-0.7,1.7-0.7,1.7l0,1.8l1.5,0.1l1,0.7L-28.9,369.2L-28.9,369.2z"/>
		</g>
	</g>
</g>
<g id="link_4_">
	<g id="XMLID_1151_">
		<path id="XMLID_1165_" class="st11" d="M-128.3,312.9l-3.3-3.3c-0.3-0.3-0.8-0.5-1.3-0.5c-0.5,0-1,0.2-1.3,0.5l-4.6,4.6
			c-0.7,0.7-0.7,1.9,0,2.6l0.5,0.5l1.3-1.3l-0.5-0.5l4.6-4.6l3.4,3.4l-4.6,4.6l-0.5-0.5l-1.3,1.3l0.5,0.5c0.3,0.3,0.8,0.5,1.3,0.5
			c0.5,0,1-0.2,1.3-0.5l4.6-4.6C-127.6,314.8-127.6,313.6-128.3,312.9z"/>
		<path id="XMLID_1164_" class="st11" d="M-137.2,320.7l-1.3,1.3l0.5,0.5l-4.6,4.6l-3.4-3.4l4.6-4.6l0.5,0.5l1.3-1.3l-0.5-0.5
			c-0.4-0.4-0.8-0.5-1.3-0.5c-0.5,0-0.9,0.2-1.3,0.5l-4.6,4.6c-0.3,0.3-0.5,0.8-0.5,1.3s0.2,1,0.5,1.3l3.4,3.4
			c0.4,0.4,0.8,0.5,1.3,0.5c0.5,0,0.9-0.2,1.3-0.5l4.6-4.6c0.7-0.7,0.7-1.9,0-2.6L-137.2,320.7z"/>
		<path id="shadow_11_" class="st11" d="M-138.5,322l0.5,0.5l-4.6,4.6l-3.4-3.4l1.4-1.4c-0.8,0-1.7-0.1-2.4-0.2l-0.3,0.3
			c-0.3,0.3-0.5,0.8-0.5,1.3c0,0.5,0.2,1,0.5,1.3l3.4,3.4c0.4,0.4,0.8,0.5,1.3,0.5s0.9-0.2,1.3-0.5l4.6-4.6c0.6-0.6,0.7-1.6,0.3-2.3
			C-137,321.7-137.7,321.8-138.5,322L-138.5,322z"/>
		<path id="XMLID_1163_" class="st11" d="M-135,316.2c-0.2-0.2-0.5-0.3-0.7-0.3c-0.3,0-0.5,0.1-0.7,0.3l-4,4c-0.4,0.4-0.4,1.1,0,1.5
			c0.2,0.2,0.5,0.3,0.7,0.3c0.3,0,0.5-0.1,0.8-0.3l4-4C-134.6,317.3-134.6,316.7-135,316.2z"/>
	</g>
</g>
<polygon id="XMLID_638_" class="st21" points="20.8,340.3 18.8,338.2 15.5,341.5 12.2,338.2 10.1,340.3 13.4,343.6 10.1,346.9 
	12.2,348.9 15.5,345.6 18.8,348.9 20.8,346.9 17.5,343.6 "/>
<g id="XMLID_349_">
	<circle id="XMLID_652_" class="st22" cx="-134.7" cy="391.5" r="11"/>
	<polygon id="XMLID_651_" class="st3" points="-129.4,385.4 -136.8,392.8 -139.9,389.7 -142.2,392.1 -139.1,395.2 -136.8,397.5 
		-134.5,395.2 -127.1,387.8 	"/>
</g>
<polygon id="XMLID_660_" class="st21" points="-13.6,337.6 -20,344 -26.4,337.6 -29.2,340.4 -22.8,346.8 -20,349.6 -17.2,346.8 
	-10.8,340.4 "/>
<g id="XMLID_659_">
	<path id="XMLID_679_" class="st3" d="M-1.2,430c0-2.3-0.9-4.4-2.5-5.9l0,0c-1.5-1.5-3.6-2.5-5.9-2.5l0,0v-3.8
		c3.4,0,6.5,1.4,8.7,3.6l0,0c2.2,2.2,3.6,5.3,3.6,8.7l0,0H-1.2L-1.2,430z"/>
	<path id="XMLID_662_" class="st3" d="M4.6,430c0-3.9-1.6-7.4-4.1-10l0,0c-2.6-2.6-6.1-4.1-10-4.1l0,0V412c9.9,0,18,8.1,18,18l0,0
		L4.6,430L4.6,430z"/>
	<path id="XMLID_661_" class="st3" d="M-4.3,427.3c0-1.5-1.2-2.7-2.6-2.7c-1.5,0-2.7,1.2-2.7,2.7c0,1.5,1.2,2.6,2.7,2.6
		S-4.3,428.8-4.3,427.3z"/>
</g>
<path id="XMLID_680_" class="st22" d="M-0.6,371.1c-0.1,0-0.2,0-0.3,0c-1.6-0.1-3.2-0.8-4.3-2.1c-0.1-0.2-0.3-0.3-0.4-0.5
	c-0.6-0.9-1-2-1.1-3.1c0-0.1,0-0.2,0-0.3c0-0.1,0-0.2,0-0.3c0.1-1.1,0.4-2.2,1.1-3.2c0.1-0.2,0.2-0.3,0.4-0.5c1.1-1.2,2.6-2,4.2-2
	l0.1,0v0c0.1,0,0.1,0,0.2,0c0.1,0,0.1,0,0.2,0v0l0.1,0c1.6,0.1,3.1,0.8,4.2,2c0.1,0.1,0.3,0.3,0.4,0.5c0.7,0.9,1.1,2,1.1,3.2
	c0,0.1,0,0.2,0,0.3c0,0.1,0,0.2,0,0.3c-0.1,1.1-0.4,2.2-1.1,3.1c-0.1,0.2-0.2,0.3-0.4,0.5c-1.1,1.2-2.6,2-4.3,2.1
	C-0.4,371.1-0.5,371.1-0.6,371.1z M-0.2,370.3c0.7-0.2,1.4-1.1,1.8-2.3c-0.6-0.1-1.2-0.2-1.8-0.2V370.3z M-2.8,368
	c0.4,1.2,1.1,2.1,1.8,2.3v-2.5C-1.6,367.8-2.2,367.9-2.8,368z M2.3,368.2c-0.2,0.7-0.5,1.3-0.9,1.8c0.7-0.3,1.4-0.8,1.9-1.3
	C3,368.5,2.6,368.3,2.3,368.2z M-4.5,368.7c0.5,0.6,1.2,1,1.9,1.3c-0.4-0.5-0.7-1.1-0.9-1.8C-3.9,368.3-4.2,368.5-4.5,368.7z
	 M2.5,367.5c0.5,0.2,0.9,0.3,1.3,0.6c0.5-0.8,0.8-1.7,0.9-2.6H2.7C2.7,366.2,2.6,366.9,2.5,367.5z M-5.9,365.5
	c0.1,0.9,0.4,1.8,0.9,2.6c0.4-0.2,0.8-0.4,1.3-0.6c-0.2-0.6-0.2-1.3-0.3-2L-5.9,365.5L-5.9,365.5z M-0.2,367.1c0.7,0,1.4,0.1,2,0.3
	c0.1-0.6,0.2-1.2,0.2-1.8h-2.2L-0.2,367.1L-0.2,367.1z M-3.2,365.5c0,0.6,0.1,1.3,0.2,1.8c0.6-0.1,1.3-0.2,2-0.3v-1.6L-3.2,365.5
	L-3.2,365.5z M4.6,364.7c-0.1-0.9-0.4-1.9-0.9-2.6c-0.4,0.2-0.8,0.4-1.3,0.5c0.2,0.7,0.3,1.4,0.3,2.1L4.6,364.7L4.6,364.7z M2,364.7
	c0-0.7-0.1-1.3-0.3-1.9c-0.6,0.1-1.3,0.2-2,0.3v1.7H2z M-1,364.7v-1.7c-0.7,0-1.4-0.1-2-0.3c-0.1,0.6-0.2,1.2-0.3,1.9H-1z M-4,364.7
	c0-0.7,0.1-1.4,0.3-2.1c-0.5-0.2-0.9-0.3-1.3-0.5c-0.6,0.8-0.9,1.7-0.9,2.6L-4,364.7L-4,364.7z M-0.2,362.3c0.6,0,1.2-0.1,1.8-0.2
	c-0.4-1.2-1.1-2-1.8-2.2V362.3z M-2.8,362.1c0.6,0.1,1.2,0.2,1.8,0.2v-2.5C-1.7,360.1-2.3,360.9-2.8,362.1z M1.4,360.2
	c0.4,0.5,0.7,1,0.9,1.7c0.4-0.1,0.7-0.3,1-0.4C2.7,360.9,2.1,360.5,1.4,360.2z M-4.5,361.5c0.3,0.2,0.6,0.3,1,0.4
	c0.2-0.7,0.5-1.2,0.9-1.7C-3.3,360.5-3.9,360.9-4.5,361.5z"/>
<circle id="XMLID_749_" class="st23" cx="-2.5" cy="538.9" r="20"/>
<polygon id="XMLID_748_" class="st3" points="7.1,527.9 -6.3,541.4 -12,535.7 -16.2,540 -10.6,545.6 -6.3,549.9 -2.1,545.6 
	11.4,532.2 "/>
<polygon id="XMLID_752_" class="st21" points="3.1,341.4 -2.3,336.1 -4.6,338.4 0.7,343.7 -4.6,349.1 -2.3,351.4 3.1,346.1 
	5.4,343.7 "/>
<g id="XMLID_870_">
	<g id="XMLID_1199_">
		<g id="XMLID_1204_">
			<path id="XMLID_1205_" class="st24" d="M-122,371.1c0,0.6-0.4,1-1,1h-3c-0.6,0-1-0.4-1-1v-4c0-0.6,0.4-1,1-1h3c0.6,0,1,0.4,1,1
				V371.1z"/>
		</g>
		<g id="XMLID_1202_">
			<path id="XMLID_1203_" class="st25" d="M-116,371.1c0,0.6-0.4,1-1,1h-3c-0.6,0-1-0.4-1-1v-8c0-0.6,0.4-1,1-1h3c0.6,0,1,0.4,1,1
				V371.1z"/>
		</g>
		<g id="XMLID_1200_">
			<path id="XMLID_1201_" class="st26" d="M-110,371.1c0,0.6-0.4,1-1,1h-3c-0.6,0-1-0.4-1-1v-12c0-0.6,0.4-1,1-1h3c0.6,0,1,0.4,1,1
				V371.1z"/>
		</g>
	</g>
</g>
<g id="XMLID_766_">
	<path id="XMLID_823_" class="st24" d="M-145.3,371.1c0,0.6-0.4,1-1,1h-3c-0.6,0-1-0.4-1-1v-4c0-0.6,0.4-1,1-1h3c0.6,0,1,0.4,1,1
		V371.1z"/>
	<path id="XMLID_781_" class="st25" d="M-139.3,371.1c0,0.6-0.4,1-1,1h-3c-0.6,0-1-0.4-1-1v-8c0-0.6,0.4-1,1-1h3c0.6,0,1,0.4,1,1
		V371.1z"/>
	<path id="XMLID_768_" class="st27" d="M-133.3,371.1c0,0.6-0.4,1-1,1h-3c-0.6,0-1-0.4-1-1v-12c0-0.6,0.4-1,1-1h3c0.6,0,1,0.4,1,1
		V371.1z"/>
</g>
<g id="XMLID_785_">
	<path id="XMLID_788_" class="st24" d="M-168.5,371.1c0,0.6-0.4,1-1,1h-3c-0.6,0-1-0.4-1-1v-4c0-0.6,0.4-1,1-1h3c0.6,0,1,0.4,1,1
		V371.1z"/>
	<path id="XMLID_787_" class="st27" d="M-162.5,371.1c0,0.6-0.4,1-1,1h-3c-0.6,0-1-0.4-1-1v-8c0-0.6,0.4-1,1-1h3c0.6,0,1,0.4,1,1
		V371.1z"/>
	<path id="XMLID_786_" class="st27" d="M-156.5,371.1c0,0.6-0.4,1-1,1h-3c-0.6,0-1-0.4-1-1v-12c0-0.6,0.4-1,1-1h3c0.6,0,1,0.4,1,1
		V371.1z"/>
</g>
<g id="XMLID_863_">
	<g id="XMLID_1083_">
		<g id="XMLID_1100_">
			<path id="XMLID_1122_" class="st24" d="M-61.8,553.5c0,1.3-1.1,2.4-2.4,2.4h-7.3c-1.3,0-2.4-1.1-2.4-2.4v-9.7
				c0-1.3,1.1-2.4,2.4-2.4h7.3c1.3,0,2.4,1.1,2.4,2.4V553.5z"/>
		</g>
		<g id="XMLID_1089_">
			<path id="XMLID_1090_" class="st25" d="M-47.3,553.5c0,1.3-1.1,2.4-2.4,2.4H-57c-1.3,0-2.4-1.1-2.4-2.4v-19.4
				c0-1.3,1.1-2.4,2.4-2.4h7.3c1.3,0,2.4,1.1,2.4,2.4V553.5z"/>
		</g>
		<g id="XMLID_1084_">
			<path id="XMLID_1085_" class="st26" d="M-32.7,553.5c0,1.3-1.1,2.4-2.4,2.4h-7.3c-1.3,0-2.4-1.1-2.4-2.4v-29.1
				c0-1.3,1.1-2.4,2.4-2.4h7.3c1.3,0,2.4,1.1,2.4,2.4V553.5z"/>
		</g>
	</g>
</g>
<g id="XMLID_801_">
	<path id="XMLID_822_" class="st24" d="M-110.8,553.5c0,1.3-1.1,2.4-2.4,2.4h-7.3c-1.3,0-2.4-1.1-2.4-2.4v-9.7
		c0-1.3,1.1-2.4,2.4-2.4h7.3c1.3,0,2.4,1.1,2.4,2.4V553.5z"/>
	<path id="XMLID_812_" class="st25" d="M-96.2,553.5c0,1.3-1.1,2.4-2.4,2.4h-7.3c-1.3,0-2.4-1.1-2.4-2.4v-19.4
		c0-1.3,1.1-2.4,2.4-2.4h7.3c1.3,0,2.4,1.1,2.4,2.4V553.5z"/>
	<path id="XMLID_805_" class="st27" d="M-81.7,553.5c0,1.3-1.1,2.4-2.4,2.4h-7.3c-1.3,0-2.4-1.1-2.4-2.4v-29.1
		c0-1.3,1.1-2.4,2.4-2.4h7.3c1.3,0,2.4,1.1,2.4,2.4L-81.7,553.5L-81.7,553.5z"/>
</g>
<g id="XMLID_764_">
	<path id="XMLID_791_" class="st24" d="M-159.8,553.5c0,1.3-1.1,2.4-2.4,2.4h-7.3c-1.3,0-2.4-1.1-2.4-2.4v-9.7
		c0-1.3,1.1-2.4,2.4-2.4h7.3c1.3,0,2.4,1.1,2.4,2.4V553.5z"/>
	<path id="XMLID_784_" class="st27" d="M-145.2,553.5c0,1.3-1.1,2.4-2.4,2.4h-7.3c-1.3,0-2.4-1.1-2.4-2.4v-19.4
		c0-1.3,1.1-2.4,2.4-2.4h7.3c1.3,0,2.4,1.1,2.4,2.4V553.5z"/>
	<path id="XMLID_779_" class="st27" d="M-130.6,553.5c0,1.3-1.1,2.4-2.4,2.4h-7.3c-1.3,0-2.4-1.1-2.4-2.4v-29.1
		c0-1.3,1.1-2.4,2.4-2.4h7.3c1.3,0,2.4,1.1,2.4,2.4V553.5z"/>
</g>
<g id="XMLID_760_">
	<rect id="XMLID_758_" x="-43" y="309.8" class="st28" width="23" height="18"/>
	<polygon id="XMLID_480_" class="st11" points="-22,325.8 -41,325.8 -41,320.1 -34.5,316.6 -29.5,322.2 -27.7,320.5 -22,323.1 	"/>
</g>
<g id="XMLID_761_">
	<circle id="XMLID_783_" class="st11" cx="-2.1" cy="327.6" r="2.4"/>
	<circle id="XMLID_782_" class="st11" cx="5.4" cy="327.6" r="2.4"/>
	<path id="XMLID_780_" class="st11" d="M-3.8,320.3l-2.6-11.2c-0.2-0.7-0.8-1.1-1.5-1.1h-5c-0.8,0-1.5,0.3-1.5,1.1
		c0,0.8,0.7,1.1,1.5,1.1h3.7l2.6,11.9c0.2,0.7,0.8,1.5,1.5,1.5H8.1c0.8,0,1.5-0.8,1.5-1.7c0-0.8-0.7-1.7-1.5-1.7L-3.8,320.3
		L-3.8,320.3L-3.8,320.3z"/>
	<path id="XMLID_763_" class="st11" d="M11.3,312.9c0,0.7-0.7,1.3-1.5,1.3H-6.5c-0.8,0-1.5-0.6-1.5-1.3v-0.4c0-0.7,0.7-1.3,1.5-1.3
		H9.8c0.8,0,1.5,0.6,1.5,1.3V312.9z"/>
	<path id="XMLID_762_" class="st11" d="M10.4,317.5c0,0.7-0.7,1.3-1.5,1.3H-5.2c-0.8,0-1.5-0.6-1.5-1.3v-0.4c0-0.7,0.7-1.3,1.5-1.3
		H9c0.8,0,1.5,0.6,1.5,1.3V317.5z"/>
</g>
<g id="XMLID_794_">
	<path id="XMLID_860_" class="st11" d="M24,327.6c0,0.8-0.6,1.4-1.4,1.4h-4.3c-0.8,0-1.4-0.6-1.4-1.4v-5.7c0-0.8,0.6-1.4,1.4-1.4
		h4.3c0.8,0,1.4,0.6,1.4,1.4V327.6z"/>
	<path id="XMLID_811_" class="st11" d="M32.6,327.6c0,0.8-0.6,1.4-1.4,1.4h-4.3c-0.8,0-1.4-0.6-1.4-1.4v-11.4c0-0.8,0.6-1.4,1.4-1.4
		h4.3c0.8,0,1.4,0.6,1.4,1.4V327.6z"/>
	<path id="XMLID_806_" class="st11" d="M41.2,327.6c0,0.8-0.6,1.4-1.4,1.4h-4.3c-0.8,0-1.4-0.6-1.4-1.4v-17.1c0-0.8,0.6-1.4,1.4-1.4
		h4.3c0.8,0,1.4,0.6,1.4,1.4V327.6z"/>
</g>
<path id="XMLID_800_" class="st3" d="M22,411c-5.5,0-10,4.5-10,10c0,5.5,4.5,10,10,10s10-4.5,10-10C32,415.4,27.6,411,22,411z
	 M23.6,413.7l-0.5,9.5H21l-0.5-9.5H23.6z M23.2,427.6c-0.3,0.3-0.7,0.4-1.2,0.4c-0.5,0-0.9-0.1-1.2-0.4c-0.3-0.3-0.4-0.7-0.4-1.2
	c0-0.5,0.1-0.9,0.4-1.2c0.3-0.3,0.7-0.4,1.2-0.4c0.5,0,0.9,0.1,1.2,0.4c0.3,0.3,0.4,0.7,0.4,1.2C23.6,426.9,23.5,427.3,23.2,427.6z"
	/>
<path id="XMLID_789_" class="st3" d="M45.2,411c-5.5,0-10,4.5-10,10c0,5.5,4.5,10,10,10c5.5,0,10-4.5,10-10S50.8,411,45.2,411z
	 M45.2,413.9c1.4,0,2.8,0.4,3.9,1.1l-9.8,9.8c-0.7-1.1-1.1-2.4-1.1-3.9C38.1,417,41.3,413.9,45.2,413.9z M45.2,428.1
	c-1.4,0-2.8-0.4-3.9-1.2l9.8-9.8c0.7,1.1,1.2,2.5,1.2,3.9C52.4,424.9,49.2,428.1,45.2,428.1z"/>
<g id="XMLID_797_">
	<path id="XMLID_884_" class="st29" d="M60.5,336.3h-2.5v-1.6c0-0.3-0.3-0.6-0.6-0.6c0,0-0.1,0-0.1,0c0,0,0,0,0,0h-6
		c-0.3,0-0.6,0.3-0.6,0.6v1.6H48c-0.7,0-1.3,0.6-1.3,1.3v2.1h1.1v12.1c0,0.7,0.6,1.3,1.3,1.3h10.2c0.7,0,1.3-0.6,1.3-1.3v-12.1h1.1
		v-2.1C61.8,336.9,61.2,336.3,60.5,336.3L60.5,336.3z M51.8,335.3h5v1.1h-5V335.3z M59.5,351.8c0,0.1,0,0.1-0.1,0.1H49.1
		c-0.1,0-0.1,0-0.1-0.1v-12.1h10.4L59.5,351.8L59.5,351.8z M60.6,338.6H47.9v-0.9c0-0.1,0-0.1,0.1-0.1h12.4c0.1,0,0.1,0,0.1,0.1
		L60.6,338.6L60.6,338.6z"/>
	<g id="XMLID_803_">
		<rect id="XMLID_878_" x="55.4" y="341.1" class="st21" width="1.7" height="9.7"/>
		<rect id="XMLID_804_" x="51.4" y="341.1" class="st21" width="1.7" height="9.7"/>
	</g>
</g>
<g id="XMLID_759_">
	<g id="XMLID_1105_">
		<line id="XMLID_1120_" class="st30" x1="-122.9" y1="319" x2="-105.1" y2="319"/>
		<line id="XMLID_1118_" class="st30" x1="-114" y1="310.1" x2="-114" y2="327.9"/>
	</g>
</g>
<g id="XMLID_904_">
	<path id="XMLID_906_" class="st31" d="M-101.1,335.5c-4.4,0-8,3.6-8,8c0,4.4,3.6,8,8,8c4.4,0,8-3.6,8-8
		C-93.1,339.1-96.6,335.5-101.1,335.5z M-101.1,349.8c-3.5,0-6.3-2.8-6.3-6.3c0-3.5,2.8-6.3,6.3-6.3c3.5,0,6.3,2.8,6.3,6.3
		C-94.8,347-97.6,349.8-101.1,349.8z"/>
	<path id="XMLID_896_" class="st31" d="M-98.5,343.8h-1.5v-3.7c0-0.5-0.5-0.9-1-0.9c-0.5,0-1,0.4-1,0.9v3.4c0,0.2,0,0.7,0,0.9
		c0,0.5,0.5,1.5,1,1.5h2.6c0.5,0,0.9-0.5,0.9-1C-97.6,344.4-98,343.8-98.5,343.8z"/>
</g>
<g id="XMLID_905_">
	<circle id="XMLID_919_" class="st21" cx="-81.4" cy="343.6" r="7"/>
	<g id="XMLID_909_">
		<path id="XMLID_910_" class="st3" d="M-80.6,345.9h-1.6c0-0.2,0-0.4,0-0.4c0-0.5,0.1-1,0.3-1.3c0.2-0.3,0.5-0.7,1.1-1.2
			c0.5-0.4,0.8-0.7,0.9-0.8c0.2-0.2,0.2-0.4,0.2-0.7c0-0.4-0.1-0.7-0.4-0.9c-0.3-0.3-0.7-0.4-1.1-0.4c-0.5,0-0.8,0.1-1.2,0.4
			c-0.3,0.3-0.5,0.7-0.6,1.2l-1.7-0.2c0-0.8,0.4-1.4,1-2c0.6-0.5,1.4-0.8,2.4-0.8c1,0,1.9,0.3,2.5,0.8c0.6,0.5,0.9,1.2,0.9,1.9
			c0,0.4-0.1,0.8-0.3,1.1c-0.2,0.4-0.7,0.8-1.4,1.5c-0.4,0.3-0.6,0.6-0.7,0.8C-80.6,345.1-80.6,345.4-80.6,345.9z M-82.3,348.4v-1.8
			h1.8v1.8H-82.3z"/>
	</g>
</g>
<g id="XMLID_920_">
	<path id="XMLID_924_" class="st21" d="M47,453.3c-8.3,0-15,6.7-15,15c0,8.3,6.7,15,15,15s15-6.7,15-15
		C61.9,460,55.2,453.3,47,453.3z M47,480c-6.5,0-11.7-5.2-11.7-11.7c0-6.5,5.2-11.7,11.7-11.7s11.7,5.2,11.7,11.7
		C58.7,474.7,53.4,480,47,480z"/>
	<path id="XMLID_923_" class="st21" d="M48.7,471c0,0.8-0.7,1.5-1.5,1.5h-0.4c-0.8,0-1.5-0.7-1.5-1.5v-7.3c0-0.8,0.7-1.5,1.5-1.5
		h0.4c0.8,0,1.5,0.7,1.5,1.5V471z"/>
	<path id="XMLID_922_" class="st21" d="M46.8,472.5c-0.8,0-1.5-0.7-1.5-1.5v-0.4c0-0.8,0.7-1.5,1.5-1.5h5c0.8,0,1.5,0.7,1.5,1.5v0.4
		c0,0.8-0.7,1.5-1.5,1.5H46.8z"/>
</g>
<g id="XMLID_989_">
	<g id="XMLID_992_">
		<path id="XMLID_994_" class="st21" d="M-49.3,389c-3.1,0-5.5,2.5-5.5,5.5c0,3.1,2.5,5.5,5.5,5.5c3.1,0,5.5-2.5,5.5-5.5
			C-43.8,391.4-46.3,389-49.3,389z M-49.3,398c-1.9,0-3.5-1.6-3.5-3.5c0-1.9,1.6-3.5,3.5-3.5c1.9,0,3.5,1.6,3.5,3.5
			C-45.9,396.4-47.4,398-49.3,398z"/>
		<polygon id="XMLID_957_" class="st21" points="-40.8,401.6 -42.5,403.3 -46.8,399 -45.1,397.3 		"/>
	</g>
	<path id="XMLID_956_" class="st21" d="M-47.8,401.6h-8.9v-20.4l10.9,0l3.7,3.6l0,11.7h2.4v-12.8l-4.8-4.9c-4.5,0-12.5,0-12.5,0
		c-0.3,0-1.9-0.1-1.9,1.8v0.1c0,0.2,0,21,0,21.2v0.1c0,1.9,1.7,1.8,1.9,1.8c0,0,0.1,0,0.1,0h9.2V401.6z"/>
	<path id="XMLID_955_" class="st21" d="M-40.4,384.9h-5.4l0-4.3h-2.3c0,2.2,0,4.7,0,4.7c0,0.3-0.1,1.9,1.8,1.9h0.1
		c0.1,0,3.4,0,5.8,0L-40.4,384.9L-40.4,384.9z"/>
</g>
<g id="XMLID_980_">
	<g id="XMLID_986_">
		<g id="XMLID_844_">
			<path id="XMLID_846_" class="st32" d="M-81.8,400.3h-4.9v-20.4l10.9,0l3.7,3.6l0,5.7h2.4v-6.8l-4.8-4.8c-4.5,0-12.5,0-12.5,0
				c-0.3,0-2-0.1-2,1.8v0.1c0,0.2,0,21,0,21.2v0.1c0,1.9,1.7,1.8,2,1.8c0,0,0.1,0,0.1,0h5.2L-81.8,400.3z"/>
			<path id="XMLID_845_" class="st32" d="M-70.3,383.6h-5.4l0-4.3h-2.3c0,2.2,0,4.7,0,4.7c0,0.3-0.1,1.9,1.8,1.9h0.1
				c0.1,0,3.3,0,5.8,0L-70.3,383.6z"/>
		</g>
	</g>
	<g id="XMLID_981_">
		<circle id="XMLID_952_" class="st32" cx="-73.1" cy="398.3" r="6.9"/>
		<g id="XMLID_982_">
			
				<rect id="XMLID_951_" x="-73.3" y="394.5" transform="matrix(-0.7069 -0.7073 0.7073 -0.7069 -404.8728 628.8268)" class="st3" width="2.3" height="7.7"/>
			
				<rect id="XMLID_943_" x="-76.2" y="396.8" transform="matrix(0.7072 -0.707 0.707 0.7072 -304.1975 63.7941)" class="st3" width="2.3" height="4.8"/>
		</g>
	</g>
</g>
<g id="XMLID_961_">
	<g id="XMLID_967_">
		<path id="XMLID_942_" class="st33" d="M-112.5,400.3h-4.9v-20.4l10.9,0l3.7,3.6l0,5.7h2.4v-6.8l-4.8-4.8c-4.5,0-12.5,0-12.5,0
			c-0.3,0-1.9-0.1-1.9,1.8v0.1c0,0.2,0,21,0,21.2v0.1c0,1.9,1.7,1.8,1.9,1.8c0,0,0.1,0,0.1,0h5.2L-112.5,400.3L-112.5,400.3z"/>
		<path id="XMLID_941_" class="st33" d="M-101.1,383.6h-5.4l0-4.3h-2.3c0,2.2,0,4.7,0,4.7c0,0.3-0.1,1.9,1.8,1.9h0.1
			c0.1,0,3.3,0,5.8,0V383.6z"/>
	</g>
	<g id="XMLID_962_">
		<circle id="XMLID_932_" class="st33" cx="-103.8" cy="398.3" r="6.9"/>
		
			<rect id="XMLID_931_" x="-105" y="394.5" transform="matrix(-0.707 -0.7072 0.7072 -0.707 -458.8637 606.4942)" class="st3" width="2.3" height="7.7"/>
		
			<rect id="XMLID_900_" x="-105" y="394.5" transform="matrix(0.7073 -0.7069 0.7069 0.7073 -311.9443 43.2046)" class="st3" width="2.3" height="7.7"/>
	</g>
</g>
<g id="XMLID_492_">
	<path id="XMLID_649_" class="st21" d="M-85.3,491.8c-2.1,2.1-3.4,5-3.4,8.1h11.5L-85.3,491.8z"/>
	<path id="XMLID_639_" class="st34" d="M-67.7,491.2c-2.1-2.1-5-3.4-8.1-3.4v11.5L-67.7,491.2z"/>
	<path id="XMLID_637_" class="st21" d="M-76.5,487.8c-3.2,0-6.1,1.3-8.1,3.4l8.1,8.1V487.8z"/>
	<path id="XMLID_636_" class="st21" d="M-88.6,500.6c0,3.2,1.3,6.1,3.4,8.1l8.1-8.1H-88.6z"/>
	<path id="XMLID_635_" class="st21" d="M-75.8,512.8c3.2,0,6.1-1.3,8.1-3.4l-8.1-8.1V512.8z"/>
	<path id="XMLID_513_" class="st21" d="M-84.6,509.4c2.1,2.1,5,3.4,8.1,3.4v-11.5L-84.6,509.4z"/>
	<path id="XMLID_501_" class="st34" d="M-75.2,500h11.5c0-3.2-1.3-6.1-3.4-8.1L-75.2,500z"/>
	<path id="XMLID_500_" class="st21" d="M-67,508.8c2.1-2.1,3.4-5,3.4-8.1h-11.5L-67,508.8z"/>
</g>
<g id="XMLID_666_">
	<g id="XMLID_669_">
		<path id="XMLID_675_" class="st35" d="M-68.9,348.8l-0.9,2.7c0,0.1,0,0.2,0.1,0.3c0.1,0.1,0.2,0.1,0.3,0.1l2.6-1.1
			C-67,349.9-68,348.9-68.9,348.8L-68.9,348.8z"/>
	</g>
	<g id="XMLID_667_">
		<path id="XMLID_668_" class="st35" d="M-68.3,347.1c1.1-1.1,2.1-2.2,3.2-3.3c1.1-1.1,2.1-2.2,3.2-3.3c2.1-2.2,2.7-2.9,4.9-5.1
			c0.4,0.1,0.8,0.2,1.2,0.2c0.5,0.5,1.1,1,1.6,1.5c0.1,0.4,0.2,0.8,0.4,1.3c-2.1,2.2-2.7,2.9-4.9,5.1c-1.1,1.1-2.1,2.2-3.2,3.3
			c-1.1,1.1-2.1,2.2-3.2,3.3c0.2-0.6,0.2-1.1-0.4-1.3c-0.1-1-0.8-1.4-1.6-1.5C-67.3,346.9-67.6,346.7-68.3,347.1L-68.3,347.1z"/>
	</g>
</g>
<g id="XMLID_677_">
	<g id="XMLID_741_">
		<path id="XMLID_742_" class="st21" d="M-40.7,349.2c-4,0-7.3-3.3-7.3-7.3c0-4,3.3-7.3,7.3-7.3c4,0,7.3,3.3,7.3,7.3
			C-33.5,345.9-36.7,349.2-40.7,349.2z M-40.7,337.5c-2.4,0-4.4,2-4.4,4.4c0,2.4,2,4.4,4.4,4.4c2.4,0,4.4-2,4.4-4.4
			C-36.4,339.5-38.3,337.5-40.7,337.5z"/>
	</g>
	<g id="XMLID_678_">
		
			<rect id="XMLID_724_" x="-47.9" y="345.1" transform="matrix(-0.7344 -0.6787 0.6787 -0.7344 -317.2714 573.5187)" class="st21" width="2.9" height="7.5"/>
	</g>
</g>
<g id="XMLID_664_">
	<g id="XMLID_750_">
		<path id="XMLID_751_" class="st36" d="M-116.3,300.1c-4,0-7.3-3.3-7.3-7.3c0-4,3.3-7.3,7.3-7.3c4,0,7.3,3.3,7.3,7.3
			C-109,296.9-112.3,300.1-116.3,300.1z M-116.3,288.5c-2.4,0-4.4,2-4.4,4.4c0,2.4,2,4.4,4.4,4.4c2.4,0,4.4-2,4.4-4.4
			C-111.9,290.4-113.9,288.5-116.3,288.5z"/>
	</g>
	<g id="XMLID_745_">
		
			<rect id="XMLID_746_" x="-123.5" y="296.1" transform="matrix(-0.7344 -0.6787 0.6787 -0.7344 -415.0968 437.1822)" class="st36" width="2.9" height="7.5"/>
	</g>
</g>
<polygon id="XMLID_650_" class="st33" points="-76,297.7 -69.6,291.3 -72.4,288.5 -78.8,294.9 -85.2,288.5 -88,291.3 -81.6,297.7 
	-78.8,300.5 "/>
<polygon id="XMLID_486_" class="st33" points="-102.2,297.5 -95.8,303.9 -93,301.1 -99.4,294.7 -93,288.3 -95.8,285.5 -102.2,291.9 
	-105,294.7 "/>
<polygon id="XMLID_771_" class="st37" points="-137.6,347.6 -141.6,343.6 -137.6,339.5 -140.5,336.6 -144.6,340.6 -148.6,336.6 
	-151.6,339.5 -147.5,343.6 -151.6,347.6 -148.6,350.6 -144.6,346.5 -140.5,350.6 "/>
<g id="XMLID_772_">
	<g id="XMLID_68_">
		<ellipse id="XMLID_75_" class="st32" cx="-22" cy="388.2" rx="1" ry="4.2"/>
		<g id="XMLID_69_">
			<path id="XMLID_72_" class="st32" d="M-21.9,380.5c-6.1,0-11,4.9-11,11c0,6.1,4.9,11,11,11c6.1,0,11-4.9,11-11
				C-10.9,385.4-15.9,380.5-21.9,380.5z M-21.9,399.6c-4.5,0-8.1-3.6-8.1-8.1c0-4.5,3.6-8.1,8.1-8.1c4.5,0,8.1,3.6,8.1,8.1
				C-13.8,396-17.5,399.6-21.9,399.6z"/>
			<ellipse id="XMLID_71_" class="st32" cx="-19.1" cy="391.9" rx="3.5" ry="0.8"/>
			<circle id="XMLID_70_" class="st32" cx="-22" cy="391.6" r="1.9"/>
		</g>
	</g>
</g>
<path id="XMLID_663_" class="st22" d="M-156.3,339l-3-2.7c-0.2-0.2-0.5-0.2-0.7,0l-7.5,8.2l-3-2.6c-0.2-0.2-0.5-0.2-0.7,0l-2.4,2.6
	c-0.2,0.2-0.2,0.5,0,0.7l3.4,3l3,2.7c0.2,0.2,0.5,0.2,0.7,0l2.4-2.6l7.8-8.6C-156.1,339.5-156.1,339.2-156.3,339z"/>
<g id="XMLID_774_">
	<g id="XMLID_831_">
		<path id="XMLID_832_" class="st21" d="M-150.5,480.9c0,0,5.1-25.9,28-24.8c0,0-2.3,3.4-8.3,4.5c0,0,2.8,0.3,5-0.4
			c0,0-1.3,3.8-8.6,4.4c0,0,4,0.9,5.8,0.4c0,0-0.5,2.9-7.9,4.3c-0.4,0.1-3.4,0.7-1,1c0,0,3.4,0.5,4.3,0.3c0,0-2.9,3.9-10.1,3.6
			c-0.7,0-1,0-1,0L-150.5,480.9z"/>
	</g>
</g>
<g id="XMLID_835_">
	<path id="XMLID_1016_" class="st21" d="M-98.3,455.5h-9.3h-6.6c-1.6,0-2.8,1.3-2.8,2.9v20.1c0,1.6,1.3,2.9,2.8,2.9h6.6h9.3
		c1.6,0,2.8-1.3,2.8-2.9v-20.1C-95.5,456.8-96.8,455.5-98.3,455.5z M-98,478.5c0,0.2-0.2,0.4-0.3,0.4h-9.3h-6.6
		c-0.2,0-0.3-0.2-0.3-0.4v-20.1c0-0.2,0.2-0.4,0.3-0.4h6.6h9.3c0.2,0,0.3,0.2,0.3,0.4V478.5z"/>
	<g id="XMLID_855_">
		<path id="XMLID_1004_" class="st21" d="M-101.8,472.4h-8.9c-0.5,0-0.9,0.4-0.9,0.9c0,0.5,0.4,0.9,0.9,0.9h8.9
			c0.5,0,0.9-0.4,0.9-0.9C-100.9,472.9-101.3,472.4-101.8,472.4L-101.8,472.4z"/>
		<path id="XMLID_993_" class="st21" d="M-101.8,469.2h-8.9c-0.5,0-0.9,0.4-0.9,0.9c0,0.5,0.4,0.9,0.9,0.9h8.9
			c0.5,0,0.9-0.4,0.9-0.9C-100.9,469.6-101.3,469.2-101.8,469.2L-101.8,469.2z"/>
		<path id="XMLID_856_" class="st21" d="M-101.8,465.9h-8.9c-0.5,0-0.9,0.4-0.9,0.9c0,0.5,0.4,0.9,0.9,0.9h8.9
			c0.5,0,0.9-0.4,0.9-0.9C-100.9,466.3-101.3,465.9-101.8,465.9L-101.8,465.9z"/>
		<path id="XMLID_773_" class="st21" d="M-101.8,462.6h-8.9c-0.5,0-0.9,0.4-0.9,0.9c0,0.5,0.4,0.9,0.9,0.9h8.9
			c0.5,0,0.9-0.4,0.9-0.9C-100.9,463.1-101.3,462.6-101.8,462.6L-101.8,462.6z"/>
	</g>
</g>
<g id="XMLID_1010_">
	<path id="XMLID_1014_" class="st21" d="M-61.2,468.8c0-0.7-0.3-1.4-0.7-1.8c0,0.1,0,0.3,0,0.4c0,1-0.6,1.9-1.4,2.3
		c-0.5-2.4-2.2-4.5-4.6-5.9c-0.5,0.5-1.1,0.9-1.7,1.2c0.3,0.1,0.6,0.3,1,0.5c0.4,0.2,0.6,0.8,0.4,1.2c-0.2,0.3-0.5,0.5-0.8,0.5
		c-0.1,0-0.3,0-0.4-0.1c-2.1-1.1-4.6-1.7-7.2-1.4c-0.5,0-0.9-0.3-1-0.8c0-0.5,0.3-0.9,0.8-1c0,0,0.1,0,0.1,0c-0.5-0.5-0.9-1-1.2-1.6
		c-0.7,0.1-1.4,0.3-2,0.6c-0.5-0.6-1.2-1-2.1-1c-0.4,0-0.9,0.1-1.2,0.3v2.5c-1.6,1.2-2.7,2.7-3.3,4.4h-0.7c-0.9,0-1.6,0.7-1.6,1.6
		v1.9c0,0.9,0.7,1.6,1.6,1.6h0.7c0.6,1.7,1.7,3.2,3.3,4.4v3c0,0.9,0.7,1.6,1.6,1.6h1.9c0.9,0,1.6-0.7,1.6-1.6v-0.7
		c1,0.2,2.1,0.3,3.2,0.3c1.3,0,2.5-0.2,3.7-0.5v0.9c0,0.9,0.7,1.6,1.6,1.6h1.9c0.9,0,1.6-0.7,1.6-1.6v-3.5c2-1.7,3.2-4,3.2-6.5
		c0,0,0-0.1,0-0.1C-62,471.1-61.2,470.1-61.2,468.8z M-82.9,468.5c-0.4,0.5-0.9,0.7-1.1,0.6c-0.2-0.2-0.1-0.7,0.3-1.2
		c0.4-0.5,0.9-0.7,1.1-0.6C-82.4,467.4-82.6,468-82.9,468.5z"/>
	<path id="XMLID_1011_" class="st21" d="M-72.3,464.4c2.9,0,5.2-2.3,5.2-5.2c0-2.9-2.3-5.2-5.2-5.2c-2.9,0-5.2,2.3-5.2,5.2
		C-77.5,462.1-75.2,464.4-72.3,464.4z M-72.9,459.5c-0.8-0.5-1.2-0.9-1.2-1.7c0-0.7,0.4-1.3,1.2-1.6v-1h0.8v0.9c0.4,0,0.7,0.1,1,0.3
		l-0.2,1c-0.2-0.1-0.5-0.2-0.8-0.2c-0.5,0-0.7,0.3-0.7,0.6c0,0.3,0.1,0.5,0.8,0.9c0.8,0.5,1.1,1.1,1.1,1.8c0,0.9-0.5,1.5-1.3,1.7
		v1.1h-0.8v-1c-0.4,0-0.8-0.1-1-0.3l0.2-1c0.3,0.2,0.6,0.3,1,0.3c0.5,0,0.7-0.3,0.7-0.6C-72.2,460.1-72.4,459.8-72.9,459.5z"/>
</g>
<g id="user_4_">
	<path id="head_10_" class="st21" d="M-51.3,462c0-3.1,2.5-5.5,5.5-5.5c3.1,0,5.5,2.5,5.5,5.5c0,3-2.5,5.5-5.5,5.5
		C-48.8,467.6-51.3,465.1-51.3,462z"/>
	<path id="body_6_" class="st21" d="M-39.3,471.7c-1.7-2-4-3.1-6.5-3.1c-2.5,0-4.8,1.1-6.5,3.1c-1.6,1.9-2.5,4.4-2.5,7
		c0,0.2,0,0.4,0,0.6c0,0.6,0.7,1.1,1.4,1.1h15.1c0.8,0,1.4-0.5,1.4-1.1c0-0.2,0-0.4,0-0.6C-36.8,476.1-37.7,473.6-39.3,471.7z"/>
</g>
<g id="XMLID_1024_">
	<g id="XMLID_31_">
		<path id="XMLID_32_" class="st21" d="M-7.4,467.6c-0.1-0.8-0.2-1.6-0.5-2.4l1.6-2.8l-2.7-3.3l-2.9,0.9c-0.8-0.5-1.6-0.9-2.5-1.2
			l-1.1-2.8h-4.2l-1.1,2.8c-0.9,0.3-1.7,0.7-2.5,1.2l-2.9-0.9l-2.7,3.3l1.6,2.8c-0.2,0.7-0.4,1.5-0.5,2.4l-2.6,1.8l1,4.3l3.3,0.5
			c0.4,0.5,0.8,1.1,1.3,1.5L-25,479l4,1.9l2.5-2.3c0.3,0,0.6,0,0.9,0s0.6,0,0.9,0l2.5,2.3l4-1.9l-0.2-3.3c0.5-0.5,0.9-1,1.3-1.5
			l3.3-0.5l1-4.3L-7.4,467.6z M-17.6,474.4c-3.3,0-5.9-2.7-5.9-5.9c0-3.3,2.7-5.9,5.9-5.9c3.3,0,5.9,2.7,5.9,5.9
			C-11.6,471.8-14.3,474.4-17.6,474.4z"/>
	</g>
</g>
<g id="XMLID_1026_">
	<g id="XMLID_1064_">
		<path id="XMLID_1068_" class="st21" d="M-119.9,346.1h3.7c1.5,0,1.4-1.5,1.4-1.5v-9.6c0,0,0,0,0-0.1c0-0.2,0.1-1.4-1.3-1.4h-0.1
			c-0.1,0-0.2,0-0.2,0h-15.3c0,0-0.1,0-0.2,0h-0.1c-1.4,0-1.4,1.3-1.3,1.4c0,0,0,0,0,0.1v9.6c0,0,0,1.5,1.4,1.5h3.1l0-1.7h-2.8v-9.1
			h15.1l0,9.1l-3.4,0L-119.9,346.1z"/>
		<polygon id="XMLID_1065_" class="st21" points="-123.9,353.6 -119.5,347.6 -122.2,347.6 -122.2,340.1 -125.8,340.1 -125.8,347.6 
			-128.5,347.6 		"/>
	</g>
</g>
<g id="XMLID_1009_">
	<g id="XMLID_944_">
		<path id="XMLID_947_" class="st21" d="M7.4,464.6H1.8c-2.2,0-2.1,2.2-2.1,2.2v14.4c0,0,0,0.1,0,0.1c0,0.3-0.1,2.2,2,2.2h0.1
			c0.2,0,0.3,0,0.3,0H25c0,0,0.1,0,0.3,0h0.1c2.1,0,2-1.9,2-2.2c0,0,0-0.1,0-0.1v-14.4c0,0,0.1-2.2-2.1-2.2h-4.6l0,2.6h4.2v13.6H2.2
			l0-13.6l5.2,0L7.4,464.6z"/>
		<polygon id="XMLID_946_" class="st21" points="13.4,453.5 6.8,462.4 10.8,462.4 10.8,473.7 16.3,473.7 16.3,462.4 20.3,462.4 		
			"/>
	</g>
</g>
<g id="XMLID_912_">
	<g id="XMLID_1170_">
		<g id="XMLID_1173_">
			<polygon id="XMLID_1174_" class="st38" points="-50.8,316.9 -55.6,312.1 -57.7,314.2 -52.9,319 -57.7,323.8 -55.6,325.9 
				-50.8,321.1 -48.7,319 			"/>
		</g>
		<g id="XMLID_1171_">
			<polygon id="XMLID_1172_" class="st38" points="-68.5,321.1 -63.7,325.9 -61.6,323.8 -66.4,319 -61.6,314.2 -63.7,312.1 
				-68.5,316.9 -70.6,319 			"/>
		</g>
	</g>
</g>
<g id="XMLID_898_">
	<path id="XMLID_1078_" class="st11" d="M-168,316.1h-4.2c-1.6,0-1.6,1.6-1.6,1.6v10.7c0,0,0,0,0,0.1c0,0.2-0.1,1.6,1.5,1.6h0.1
		c0.1,0,0.2,0,0.2,0h17c0,0,0.1,0,0.2,0h0.1c1.6,0,1.5-1.4,1.5-1.6c0,0,0,0,0-0.1v-10.7c0,0,0-1.6-1.6-1.6h-3.4l0,1.9h3.1v10.1
		h-16.8l0-10.1l3.8,0L-168,316.1z"/>
	<polygon id="XMLID_1069_" class="st11" points="-163.6,307.8 -168.5,314.5 -165.5,314.5 -165.5,322.8 -161.4,322.8 -161.4,314.5 
		-158.4,314.5 	"/>
</g>
<path id="XMLID_13_" class="st3" d="M0.9,383c-4.7,0-8.5,3.8-8.5,8.5c0,3.6,2.2,6.7,5.4,7.9c-0.1-0.7-0.1-1.7,0-2.4
	c0.2-0.7,1-4.2,1-4.2s-0.3-0.5-0.3-1.3c0-1.2,0.7-2.1,1.5-2.1c0.7,0,1.1,0.5,1.1,1.2c0,0.7-0.5,1.8-0.7,2.8
	c-0.2,0.8,0.4,1.5,1.3,1.5c1.5,0,2.7-1.6,2.7-3.9c0-2-1.5-3.5-3.6-3.5c-2.4,0-3.8,1.8-3.8,3.7c0,0.7,0.3,1.5,0.6,1.9
	c0.1,0.1,0.1,0.2,0.1,0.2c-0.1,0.3-0.2,0.8-0.2,1c0,0.2-0.1,0.2-0.3,0.1c-1.1-0.5-1.7-2-1.7-3.3c0-2.7,1.9-5.1,5.6-5.1
	c2.9,0,5.2,2.1,5.2,4.9c0,2.9-1.8,5.3-4.4,5.3c-0.9,0-1.7-0.4-1.9-1c0,0-0.4,1.6-0.5,2c-0.2,0.7-0.7,1.7-1.1,2.2
	c0.8,0.2,1.6,0.4,2.5,0.4c4.7,0,8.5-3.8,8.5-8.5C9.4,386.8,5.6,383,0.9,383z"/>
<path id="icon" class="st3" d="M24.7,389.6l1.4,0.6l2-0.6v-1.4c-0.1-2.4-2-4.3-4.5-4.3c-2.4,0-4.4,1.9-4.5,4.3v6.5
	c0,0.6-0.5,1.1-1.1,1.1c-0.6,0-1.1-0.5-1.1-1.1v-2.7h-3.4c0,0,0,2.7,0,2.8c0,2.5,2,4.5,4.5,4.5c2.4,0,4.4-2,4.5-4.4l0-6.4
	c0-0.6,0.5-1.1,1.1-1.1c0.6,0,1.1,0.5,1.1,1.1L24.7,389.6L24.7,389.6z M30.2,391.9v2.9c0,0.6-0.5,1.1-1.1,1.1
	c-0.6,0-1.1-0.5-1.1-1.1v-2.8l-2,0.6l-1.4-0.6v2.8c0,2.5,2,4.4,4.5,4.4c2.5,0,4.5-2,4.5-4.5c0,0,0-2.8,0-2.8H30.2z"/>
<g id="XMLID_8_">
	<path id="XMLID_5_" class="st3" d="M-105.1,435c-3.3,0-4.9,2.3-4.9,4.3c0,1.2,0.4,2.2,1.4,2.6c0.2,0.1,0.3,0,0.3-0.2
		c0-0.1,0.1-0.4,0.1-0.6c0-0.2,0-0.2-0.1-0.4c-0.3-0.3-0.5-0.8-0.5-1.4c0-1.7,1.3-3.3,3.4-3.3c1.9,0,2.9,1.1,2.9,2.6
		c0,2-0.9,3.7-2.2,3.7c-0.7,0-1.3-0.6-1.1-1.3c0.2-0.9,0.6-1.8,0.6-2.4c0-0.6-0.3-1-0.9-1c-0.7,0-1.3,0.8-1.3,1.8
		c0,0.6,0.2,1.1,0.2,1.1s-0.8,3.2-0.9,3.8c-0.3,1.1,0,2.5,0,2.6c0,0.1,0.1,0.1,0.2,0c0.1-0.1,0.9-1.2,1.2-2.3
		c0.1-0.3,0.5-1.9,0.5-1.9c0.2,0.5,0.9,0.9,1.7,0.9c2.2,0,3.7-2,3.7-4.7C-100.7,436.9-102.4,435-105.1,435z"/>
</g>
<path id="XMLID_91_" class="st39" d="M49.6,391.2c0.9,0,1.6,0.7,1.6,1.6s-0.7,1.6-1.6,1.6s-1.6-0.7-1.6-1.6S48.8,391.2,49.6,391.2
	L49.6,391.2z"/>
<path id="XMLID_88_" class="st39" d="M44.4,391.2c0.9,0,1.6,0.7,1.6,1.6s-0.7,1.6-1.6,1.6s-1.6-0.7-1.6-1.6S43.6,391.2,44.4,391.2
	L44.4,391.2z"/>
<path id="XMLID_77_" class="st39" d="M55.2,392c0.5,0.8,0.8,1.6,0.8,2.6c0,3.3-3.9,6-8.8,6s-8.8-2.7-8.8-6c0-0.9,0.3-1.8,0.8-2.6
	c1-1.5,2.8-2.6,5.1-3.1c0.9-0.2,1.9-0.3,2.9-0.3c1,0,2,0.1,2.9,0.3C52.4,389.5,54.2,390.6,55.2,392L55.2,392z M51.2,392.8
	c0-0.9-0.7-1.6-1.6-1.6s-1.6,0.7-1.6,1.6s0.7,1.6,1.6,1.6C50.5,394.4,51.2,393.7,51.2,392.8L51.2,392.8z M46,392.8
	c0-0.9-0.7-1.6-1.6-1.6s-1.6,0.7-1.6,1.6s0.7,1.6,1.6,1.6S46,393.7,46,392.8L46,392.8z"/>
<path id="XMLID_18_" class="st3" d="M53.2,398.5"/>
<path id="XMLID_10_" class="st3" d="M44.4,391.6"/>
<path id="XMLID_6_" class="st3" d="M49.6,391.6"/>
<g id="XMLID_23_">
	<path id="XMLID_30_" class="st3" d="M52.9,392.2c0.1,0.1,0.1,0.3,0.1,0.4c0,0.3-0.1,0.5-0.3,0.8c-0.2,0.2-0.4,0.4-0.6,0.5h0
		c0,0,0,0,0,0c0,0,0,0,0,0c-0.1,0-0.2,0.1-0.4,0.1c-0.3,0-0.6-0.1-0.8-0.3c-0.2-0.2-0.4-0.4-0.5-0.7c0,0,0,0,0,0c0,0,0,0,0,0h0
		c0-0.1,0-0.2,0-0.2c0-0.3,0.1-0.5,0.2-0.7c0.1-0.2,0.4-0.4,0.6-0.5c0,0,0,0,0,0c0,0,0,0,0,0c0.1-0.1,0.3-0.1,0.4-0.1
		c0.3,0,0.5,0.1,0.7,0.2C52.7,391.8,52.8,392,52.9,392.2C52.9,392.2,52.9,392.2,52.9,392.2C52.9,392.2,52.9,392.2,52.9,392.2
		L52.9,392.2z M52.1,395.5c-0.1-0.1-0.2-0.1-0.3-0.1c-0.1,0-0.2,0-0.3,0.1c-0.9,0.5-1.9,0.8-3,0.8c-0.8,0-1.5-0.2-2.2-0.5l0,0l0,0
		c-0.1,0-0.2-0.1-0.4-0.2c-0.1,0-0.1-0.1-0.2-0.1c-0.1,0-0.2-0.1-0.3-0.1c-0.1,0-0.2,0-0.2,0.1c0,0,0,0,0,0c-0.1,0-0.2,0.1-0.3,0.2
		c-0.1,0.1-0.1,0.2-0.1,0.3c0,0.1,0,0.2,0.1,0.3c0.1,0.1,0.1,0.2,0.2,0.2c1,0.7,2.2,1,3.3,1c1.1,0,2.1-0.2,3.1-0.7l0,0l0,0
		c0.1-0.1,0.3-0.1,0.4-0.2c0.1-0.1,0.2-0.1,0.2-0.2c0.1-0.1,0.1-0.2,0.1-0.3c0,0,0-0.1,0-0.1c0-0.1,0-0.2-0.1-0.2
		C52.3,395.6,52.2,395.5,52.1,395.5L52.1,395.5z M45.1,393.8C45.1,393.8,45.1,393.8,45.1,393.8c0.1,0,0.3,0.1,0.4,0.1
		c0.3,0,0.6-0.1,0.9-0.3c0.2-0.2,0.4-0.5,0.4-0.9c0,0,0,0,0,0c0,0,0,0,0-0.1c0-0.3-0.2-0.7-0.4-0.9c-0.2-0.2-0.6-0.4-0.9-0.4
		c-0.1,0-0.2,0-0.3,0c0,0,0,0,0,0h0c-0.4,0.1-0.8,0.4-0.9,0.8c0,0,0,0,0,0c0,0.1-0.1,0.2-0.1,0.4c0,0.3,0.1,0.5,0.2,0.7
		C44.7,393.6,44.9,393.8,45.1,393.8C45.1,393.8,45.1,393.8,45.1,393.8L45.1,393.8z M58.6,390.7L58.6,390.7c0,0,0,0.1,0,0.1
		c0,0.5-0.2,1-0.4,1.3c-0.2,0.4-0.6,0.7-1,0.9c0,0.2,0,0.4,0,0.6c0,1-0.4,2.1-1,2.9v0h0c-1.2,1.5-2.9,2.5-4.7,2.9l0,0
		c-1,0.2-1.9,0.4-2.9,0.4c-1.5,0-2.9-0.3-4.3-0.8v0h0c-1.4-0.6-2.8-1.5-3.6-2.9c-0.4-0.7-0.7-1.6-0.7-2.4c0-0.2,0-0.4,0-0.6
		c-0.4-0.2-0.7-0.5-0.9-0.9c-0.3-0.4-0.4-0.8-0.4-1.3v0c0-0.7,0.3-1.3,0.7-1.8s1.1-0.8,1.7-0.8h0c0.1,0,0.1,0,0.2,0
		c0.3,0,0.7,0.1,1,0.2l0,0h0c0.3,0.1,0.5,0.3,0.8,0.4c0.1,0,0.2-0.1,0.3-0.1c1.4-0.9,3.1-1.2,4.8-1.3c0-0.8,0.1-1.7,0.5-2.4
		c0.3-0.6,0.9-1.1,1.6-1.3l0,0h0c0.3-0.1,0.5-0.1,0.8-0.1c0.7,0,1.4,0.2,2,0.4c0.3-0.4,0.7-0.8,1.2-0.9l0,0l0,0
		c0.3-0.1,0.6-0.1,0.9-0.1c0.3,0,0.6,0.1,0.9,0.2v0c0,0,0,0,0,0c0,0,0,0,0,0c0.4,0.2,0.8,0.5,1,0.8c0.3,0.4,0.4,0.8,0.4,1.3
		c0,0.1,0,0.2,0,0.3l0,0c0,0,0,0,0,0c-0.1,0.6-0.4,1.1-0.8,1.5c-0.4,0.4-1,0.6-1.6,0.6c-0.1,0-0.2,0-0.3,0c-0.6,0-1.1-0.3-1.5-0.7
		c-0.4-0.4-0.6-1-0.6-1.5c0,0,0-0.1,0-0.1c-0.5-0.2-1.1-0.4-1.7-0.4c-0.1,0-0.2,0-0.2,0h0c-0.4,0-0.8,0.3-1,0.7v0
		c-0.3,0.6-0.3,1.2-0.4,1.9c1.6,0.1,3.2,0.5,4.6,1.3h0l0,0c0,0,0.1,0,0.1,0.1c0.1-0.1,0.2-0.2,0.3-0.2c0.4-0.3,0.9-0.4,1.4-0.4
		c0.2,0,0.5,0,0.7,0.1h0l0,0c0,0,0,0,0,0c0.5,0.1,1,0.4,1.3,0.8C58.3,389.6,58.6,390.2,58.6,390.7L58.6,390.7L58.6,390.7L58.6,390.7
		z M53.9,385.4C53.9,385.5,53.9,385.5,53.9,385.4L53.9,385.4c0,0.4,0.1,0.6,0.3,0.8c0.2,0.2,0.5,0.3,0.7,0.3h0c0,0,0,0,0.1,0
		c0.3,0,0.5-0.1,0.8-0.3c0.2-0.2,0.3-0.5,0.4-0.7v0c0,0,0,0,0-0.1c0-0.3-0.1-0.6-0.3-0.8c-0.2-0.2-0.5-0.3-0.8-0.3
		c-0.1,0-0.2,0-0.3,0h0l0,0c-0.2,0.1-0.4,0.2-0.6,0.4C54,385,53.9,385.2,53.9,385.4L53.9,385.4z M42,389.8c-0.2-0.1-0.4-0.2-0.7-0.2
		c0,0-0.1,0-0.1,0h0l0,0c-0.3,0-0.6,0.1-0.9,0.4c-0.2,0.2-0.4,0.5-0.4,0.8v0l0,0c0,0,0,0.1,0,0.1c0,0.2,0.1,0.4,0.2,0.6
		c0.1,0.1,0.2,0.3,0.3,0.4C40.8,391,41.3,390.3,42,389.8L42,389.8z M56,393.7c0-0.7-0.3-1.4-0.7-2c-0.8-1.2-2.1-1.9-3.5-2.4l0,0
		c-0.3-0.1-0.5-0.1-0.8-0.2c-0.8-0.2-1.6-0.3-2.4-0.3c-1.1,0-2.2,0.2-3.2,0.5c-1.4,0.4-2.7,1.2-3.5,2.4v0c-0.4,0.6-0.7,1.3-0.7,2
		c0,0.3,0,0.5,0.1,0.8l0,0c0.2,0.6,0.4,1.1,0.8,1.5c0.4,0.5,0.9,0.8,1.4,1.2c0.1,0.1,0.2,0.1,0.3,0.2c1.4,0.8,3.1,1.2,4.8,1.2
		c0.3,0,0.6,0,0.8,0c1.7-0.1,3.3-0.6,4.7-1.6v0c0.4-0.3,0.8-0.7,1.1-1.1c0.3-0.4,0.5-0.9,0.7-1.5v0C56,394.1,56,393.9,56,393.7
		L56,393.7z M57.3,390.8c0-0.2,0-0.3-0.1-0.5l0,0l0,0c-0.1-0.2-0.3-0.4-0.5-0.5c-0.2-0.1-0.5-0.2-0.7-0.2c-0.2,0-0.5,0.1-0.7,0.2
		c0.7,0.6,1.2,1.3,1.6,2.1c0.1-0.1,0.2-0.2,0.3-0.4C57.3,391.3,57.3,391,57.3,390.8L57.3,390.8z"/>
</g>
<g id="XMLID_46_">
	<line id="XMLID_40_" class="st40" x1="-56.5" y1="508.3" x2="-33.5" y2="508.3"/>
	<line id="XMLID_35_" class="st40" x1="-56.5" y1="500.3" x2="-33.5" y2="500.3"/>
	<line id="XMLID_22_" class="st40" x1="-56.5" y1="492.3" x2="-33.5" y2="492.3"/>
</g>
<g id="XMLID_47_">
	<circle id="XMLID_49_" class="st41" cx="-14.1" cy="498.2" r="7.4"/>
	<line id="XMLID_48_" class="st41" x1="-19.4" y1="503.3" x2="-26.4" y2="509.8"/>
</g>
<g id="XMLID_50_">
	<circle id="XMLID_55_" class="st27" cx="12.8" cy="508.9" r="2.4"/>
	<circle id="XMLID_54_" class="st27" cx="20.3" cy="508.9" r="2.4"/>
	<path id="XMLID_53_" class="st27" d="M11.1,501.6l-2.6-11.2c-0.2-0.7-0.8-1.1-1.5-1.1H2c-0.8,0-1.5,0.3-1.5,1.1
		c0,0.8,0.7,1.1,1.5,1.1h3.7l2.6,11.9c0.2,0.7,0.8,1.5,1.5,1.5H23c0.8,0,1.5-0.8,1.5-1.7c0-0.8-0.7-1.7-1.5-1.7H11.1L11.1,501.6
		L11.1,501.6z"/>
	<path id="XMLID_52_" class="st27" d="M26.2,494.2c0,0.7-0.7,1.3-1.5,1.3H8.4c-0.8,0-1.5-0.6-1.5-1.3v-0.4c0-0.7,0.7-1.3,1.5-1.3
		h16.4c0.8,0,1.5,0.6,1.5,1.3V494.2z"/>
	<path id="XMLID_51_" class="st27" d="M25.3,498.8c0,0.7-0.7,1.3-1.5,1.3H9.7c-0.8,0-1.5-0.6-1.5-1.3v-0.4c0-0.7,0.7-1.3,1.5-1.3
		h14.1c0.8,0,1.5,0.6,1.5,1.3V498.8z"/>
</g>
<g id="XMLID_62_">
	<g id="XMLID_116_">
		<circle id="XMLID_121_" class="st21" cx="43.7" cy="508.9" r="2.4"/>
		<circle id="XMLID_120_" class="st21" cx="51.1" cy="508.9" r="2.4"/>
		<path id="XMLID_119_" class="st21" d="M42,501.6l-2.6-11.2c-0.2-0.7-0.8-1.1-1.5-1.1h-5c-0.8,0-1.5,0.3-1.5,1.1
			c0,0.8,0.7,1.1,1.5,1.1h3.7l2.6,11.9c0.2,0.7,0.8,1.5,1.5,1.5h13.2c0.8,0,1.5-0.8,1.5-1.7c0-0.8-0.7-1.7-1.5-1.7L42,501.6
			L42,501.6L42,501.6z"/>
		<path id="XMLID_118_" class="st21" d="M57.1,494.2c0,0.7-0.7,1.3-1.5,1.3H39.3c-0.8,0-1.5-0.6-1.5-1.3v-0.4c0-0.7,0.7-1.3,1.5-1.3
			h16.4c0.8,0,1.5,0.6,1.5,1.3V494.2z"/>
		<path id="XMLID_117_" class="st21" d="M56.2,498.8c0,0.7-0.7,1.3-1.5,1.3H40.6c-0.8,0-1.5-0.6-1.5-1.3v-0.4c0-0.7,0.7-1.3,1.5-1.3
			h14.1c0.8,0,1.5,0.6,1.5,1.3V498.8z"/>
	</g>
</g>
<g id="user_20_">
	<g>
		<circle id="head_8_" class="st27" cx="39.9" cy="361.8" r="5.1"/>
		<path id="body_10_" class="st27" d="M45.9,370.7c-1.6-1.8-3.7-2.9-6-2.9s-4.4,1-6,2.9c-1.5,1.7-2.3,4-2.3,6.4c0,0.2,0,0.4,0,0.6
			c0,0.6,0.6,1,1.3,1h13.9c0.7,0,1.3-0.5,1.3-1c0-0.2,0-0.4,0-0.6C48.2,374.7,47.4,372.4,45.9,370.7z"/>
	</g>
</g>
<polygon id="XMLID_26_" class="st3" points="21.7,369.4 27.1,364 24.7,361.7 19.4,367 14.1,361.7 11.7,364 17.1,369.4 19.4,371.7 
	"/>
<g id="XMLID_27_">
	<polyline id="XMLID_11_" class="st42" points="-15,295.5 -10.8,298.5 -7,295.5 	"/>
	<polyline id="XMLID_7_" class="st42" points="-15,290.5 -10.8,293.5 -7,290.5 	"/>
</g>
<g id="WA_Logo">
	<g>
		<path class="st43" d="M41.9,531.8c-1.9-1.9-4.4-2.9-7-2.9c-5.5,0-9.9,4.4-9.9,9.9c0,1.7,0.5,3.4,1.3,4.9l-1.4,5.1l5.2-1.4
			c1.4,0.8,3.1,1.2,4.7,1.2h0c5.5,0,9.9-4.4,9.9-9.9C44.8,536.2,43.7,533.7,41.9,531.8z M34.9,547L34.9,547c-1.5,0-2.9-0.4-4.2-1.1
			l-0.3-0.2l-3.1,0.8l0.8-3l-0.2-0.3c-0.8-1.3-1.3-2.8-1.3-4.4c0-4.5,3.7-8.2,8.2-8.2c2.2,0,4.3,0.9,5.8,2.4
			c1.6,1.6,2.4,3.6,2.4,5.8C43.1,543.3,39.4,547,34.9,547z M39.4,540.9c-0.2-0.1-1.5-0.7-1.7-0.8c-0.2-0.1-0.4-0.1-0.6,0.1
			c-0.2,0.2-0.6,0.8-0.8,1c-0.1,0.2-0.3,0.2-0.5,0.1c-0.2-0.1-1-0.4-2-1.2c-0.7-0.7-1.2-1.5-1.4-1.7c-0.1-0.2,0-0.4,0.1-0.5
			c0.1-0.1,0.2-0.3,0.4-0.4c0.1-0.1,0.2-0.2,0.2-0.4c0.1-0.2,0-0.3,0-0.4c-0.1-0.1-0.6-1.3-0.8-1.8c-0.2-0.5-0.4-0.4-0.6-0.4
			c-0.1,0-0.3,0-0.5,0c-0.2,0-0.4,0.1-0.7,0.3c-0.2,0.2-0.9,0.8-0.9,2.1c0,1.2,0.9,2.4,1,2.6c0.1,0.2,1.7,2.7,4.2,3.7
			c0.6,0.3,1,0.4,1.4,0.5c0.6,0.2,1.1,0.2,1.6,0.1c0.5-0.1,1.5-0.6,1.7-1.2c0.2-0.6,0.2-1.1,0.1-1.2C39.8,541.1,39.6,541,39.4,540.9
			z"/>
	</g>
</g>
<g id="XMLID_20_">
	<path id="XMLID_21_" class="st27" d="M-171.4,580.3V571h-1.6v-2.8h1.6v-0.5c0-1.5,0.4-3.1,1.5-4.1c0.9-0.9,2.3-1.2,3.3-1.2
		c0.8,0,1.5,0.1,2,0.2l-0.1,2.9c-0.3-0.1-0.7-0.2-1.2-0.2c-1.2,0-1.8,1-1.8,2.2v0.6h2.4v2.8h-2.4v9.4H-171.4z"/>
</g>
<g id="XMLID_15_">
	<rect id="XMLID_19_" x="-131.2" y="568.5" class="st27" width="3.7" height="11.3"/>
	<path id="XMLID_17_" class="st27" d="M-129.3,566.9L-129.3,566.9c-1.3,0-2.1-0.9-2.1-1.9c0-1.1,0.8-1.9,2.1-1.9
		c1.3,0,2.1,0.8,2.1,1.9C-127.2,566.1-128,566.9-129.3,566.9z"/>
	<path id="XMLID_16_" class="st27" d="M-114.1,579.7h-3.7v-6c0-1.5-0.5-2.5-1.9-2.5c-1,0-1.6,0.7-1.9,1.4c-0.1,0.2-0.1,0.6-0.1,0.9
		v6.3h-3.7c0,0,0-10.2,0-11.3h3.7v1.6c0.5-0.8,1.4-1.9,3.3-1.9c2.4,0,4.3,1.6,4.3,5.1L-114.1,579.7z"/>
</g>
<path id="XMLID_14_" class="st27" d="M-151.5,576.2c0,0-3-0.4-3.6-3c0,0,2.1,0.1,1.7-0.1c-0.4-0.1-3.3-1.1-3.1-4c0,0,2,0.7,1.7,0.4
	c-0.4-0.6-2.7-2.1-1.2-5.3c0,0,4.3,4.5,8.4,4.3c0,0,0.1-0.1,0-0.2c-0.8-1.9,2.4-7.5,6.9-3.6c0,0,2.2-0.6,2.6-1.1
	c0,0-0.7,1.7-1.5,2.3c0,0,1.8-0.5,2.1-0.5c0,0-1.1,1.6-2,2c-0.1,0.1,0-0.1,0,0c0.4,4.5-3.8,16.2-17.8,10.4
	C-157.6,577.7-153.7,578.1-151.5,576.2z"/>
<g id="XMLID_1_">
	<path id="XMLID_12_" class="st27" d="M-93.8,569.9h-7.5v3h4.4c-0.1,0.7-0.6,1.8-1.6,2.6c-0.7,0.5-1.6,0.8-2.8,0.8
		c-2.1,0-3.9-1.4-4.5-3.3c-0.2-0.5-0.3-1-0.3-1.6c0-0.6,0.1-1.1,0.3-1.6c0.6-1.9,2.4-3.3,4.6-3.3c1.5,0,2.5,0.6,3.1,1.2l2.3-2.2
		c-1.4-1.3-3.2-2.1-5.3-2.1c-3.1,0-5.8,1.8-7.1,4.4c-0.5,1.1-0.9,2.3-0.9,3.6c0,1.3,0.3,2.5,0.9,3.6c1.3,2.6,4,4.4,7.1,4.4
		c2.2,0,4-0.7,5.3-1.9c1.5-1.4,2.4-3.4,2.4-5.9C-93.6,570.9-93.7,570.4-93.8,569.9z"/>
	<polygon id="XMLID_9_" class="st27" points="-85.2,570.2 -87.5,570.2 -87.5,567.9 -89.8,567.9 -89.8,570.2 -92,570.2 -92,572.5 
		-89.8,572.5 -89.8,574.8 -87.5,574.8 -87.5,572.5 -85.2,572.5 	"/>
</g>
</svg>
